<svg t="1712844302487" class="icon" viewBox="0 0 1024 1024" version="1.1" xmlns="http://www.w3.org/2000/svg" p-id="10848" width="240" height="240"><path d="M512 512m-512 0a512 512 0 1 0 1024 0 512 512 0 1 0-1024 0Z" fill="#33CCCC" p-id="10849"></path><path d="M888.771765 858.654118c-14.004706-47.435294-30.418824-86.437647-49.995294-106.014118-40.207059-40.357647-193.204706-64.150588-193.204706-64.150588l-133.571765 15.058823-133.571765-15.058823S225.430588 712.282353 185.223529 752.64c-19.576471 19.576471-35.990588 58.578824-49.995294 106.014118C228.743529 960.301176 362.917647 1024 512 1024s283.256471-63.698824 376.771765-165.345882z" fill="#D0D4D7" p-id="10850"></path><path d="M427.670588 568.169412h84.329412v165.647059h-84.329412zM596.329412 733.917365h-84.329412v-165.647059h84.329412z" fill="#FEE1B9" p-id="10851"></path><path d="M596.329412 617.411765l-135.981177 92.611764-32.677647-57.223529v-84.630588z" fill="#FFD2A6" p-id="10852"></path><path d="M321.204706 356.894118S310.362353 638.343529 512 638.343529V160.376471L339.124706 221.364706l-17.92 135.529412z" fill="#FEE1B9" p-id="10853"></path><path d="M364.272941 404.178824c12.197647 37.647059 3.915294 73.336471-18.221176 81.167058-29.515294 10.390588-62.042353-28.310588-74.24-65.957647s7.68-62.945882 29.967059-70.324706c22.287059-7.228235 50.296471 17.468235 62.494117 55.115295zM702.795294 356.894118s10.842353 281.449412-190.795294 281.449411V160.376471L684.875294 221.364706l17.92 135.529412z" fill="#FEE1B9" p-id="10854"></path><path d="M659.727059 404.178824c-12.197647 37.647059-3.915294 73.336471 18.221176 81.167058 29.515294 10.390588 62.042353-28.310588 74.24-65.957647s-7.68-62.945882-29.967059-70.324706c-22.287059-7.228235-50.296471 17.468235-62.494117 55.115295z" fill="#FEE1B9" p-id="10855"></path><path d="M665.6 215.190588l30.117647 167.905883h17.92s86.136471-182.061176-48.037647-167.905883z" fill="#61402F" p-id="10856"></path><path d="M305.694118 167.303529s23.642353-136.734118 196.367058-109.929411c118.362353 18.371765 135.68 92.912941 256.90353 109.929411 0 0-57.223529 129.656471-246.964706 127.698824-189.741176-2.108235-216.545882-100.592941-206.305882-127.698824z" fill="#61402F" p-id="10857"></path><path d="M358.4 215.190588l-30.117647 167.905883h-17.92S224.225882 201.035294 358.4 215.190588z" fill="#61402F" p-id="10858"></path><path d="M512 703.548235h-36.141176l-11.745883 44.122353L492.423529 781.552941h19.576471z" fill="#DD8787" p-id="10859"></path><path d="M378.428235 688.489412l43.821177-26.804706s3.463529-0.301176 5.571764-8.734118l84.329412 50.748236-46.08 89.901176-87.642353-105.110588z" fill="#DFE5EA" p-id="10860"></path><path d="M492.423529 781.552941l-26.352941 180.856471L512 1017.976471V781.552941z" fill="#DD8787" p-id="10861"></path><path d="M888.771765 858.654118c-14.004706-47.435294-30.418824-86.437647-49.995294-106.014118-40.207059-40.357647-193.204706-64.150588-193.204706-64.150588l-133.571765 15.058823V1024c149.082353 0 283.256471-63.698824 376.771765-165.345882z" fill="#B9C7D0" p-id="10862"></path><path d="M512 703.548235h36.141176l11.745883 44.122353L531.576471 781.552941h-19.576471z" fill="#C66B6B" p-id="10863"></path><path d="M645.571765 688.489412l-43.821177-26.804706s-3.463529-0.301176-5.571764-8.734118l-84.329412 50.748236 46.08 89.901176 87.642353-105.110588z" fill="#D0D4D7" p-id="10864"></path><path d="M531.576471 781.552941l26.352941 180.856471L512 1017.976471V781.552941z" fill="#C66B6B" p-id="10865"></path></svg>