<svg t="1733207633450" class="icon" viewBox="0 0 1024 1024" version="1.1" xmlns="http://www.w3.org/2000/svg" p-id="5598" width="220" height="220"><path d="M950.564571 681.954743H255.853714c-7.358171 0-15.067429 2.004114-23.083885 6.012343-8.045714 4.022857-15.5648 10.049829-22.586515 18.080914A96.943543 96.943543 0 0 0 193.097143 734.646857c-4.344686 11.029943-6.524343 23.581257-6.524343 37.639314 0 14.043429 1.8432 27.106743 5.514971 39.160686 3.6864 12.039314 8.543086 22.747429 14.555429 32.124343 6.026971 9.362286 13.385143 16.720457 22.089143 22.089143a52.677486 52.677486 0 0 0 28.116114 8.016457H950.564571a140.024686 140.024686 0 0 1-21.065142-27.092114c-5.368686-8.704-10.210743-19.075657-14.570058-31.1296-4.344686-12.039314-6.524343-25.760914-6.524342-41.1648 0-17.408 2.179657-31.787886 6.524342-43.154286 4.359314-11.381029 9.216-20.757943 14.555429-28.116114a104.886857 104.886857 0 0 1 21.079771-21.079772z m0 274.066286c0 11.381029-7.358171 17.071543-22.089142 17.071542H194.633143c-22.762057 0-41.837714-4.681143-57.226972-14.058057-15.389257-9.362286-27.940571-22.250057-37.639314-38.648685-9.713371-16.398629-16.574171-35.986286-20.5824-58.733715C75.146971 838.890057 73.142857 814.460343 73.142857 788.362971V206.087314c0-51.536457 13.7216-88.839314 41.1648-111.937828 27.4432-23.083886 66.589257-34.625829 117.467429-34.625829h195.744914c34.143086 0 69.105371-0.175543 104.916114-0.512C568.246857 58.6752 603.209143 58.514286 637.366857 58.514286H837.12c18.753829 0 35.137829 3.847314 49.195886 11.556571a100.746971 100.746971 0 0 1 35.137828 32.109714c9.362286 13.7216 16.574171 29.959314 21.591772 48.698515 5.0176 18.724571 7.519086 38.8096 7.519085 60.225828v406.586515c-127.824457 0-242.936686-0.321829-345.336685-0.994743h-128.512c-42.832457 0-81.144686-0.175543-114.951315-0.497372-33.792-0.336457-61.732571-0.512-83.821714-0.512h-37.156571c-14.043429 0-27.765029 4.183771-41.150172 12.551315-13.385143 8.367543-25.439086 19.748571-36.132571 34.128457-10.722743 14.394514-19.412114 31.1296-26.112 50.205257a179.0976 179.0976 0 0 0-10.0352 59.728457c0 25.439086 3.510857 48.362057 10.532571 68.768914 7.021714 20.421486 16.237714 37.653943 27.618743 51.697372 11.381029 14.058057 23.917714 24.941714 37.639314 32.621714 13.7216 7.709257 27.282286 11.556571 40.667429 11.556571h685.6704c5.354057 0 10.210743 1.506743 14.555429 4.520229 4.359314 3.013486 6.524343 7.855543 6.524342 14.555429zM517.880686 58.514286v388.520228l77.297371-108.426971 76.302629 108.426971V58.514286h-153.6z" fill="#FF5722" p-id="5599"></path></svg>