<!-- <svg t="1704469254893" class="icon" viewBox="0 0 1024 1024" version="1.1" xmlns="http://www.w3.org/2000/svg" p-id="1950" width="250" height="250"><path d="M824.32 581.12l-117.76-88.32V346.88c0-83.2-32-162.56-92.16-221.44l-97.28-97.28c-6.4-6.4-15.36-6.4-21.76 0l-97.28 97.28c-58.88 58.88-92.16 138.24-92.16 221.44v145.92l-117.76 88.32c-3.84 2.56-6.4 7.68-6.4 12.8v400.64c0 6.4 3.84 11.52 8.96 14.08 2.56 1.28 5.12 1.28 6.4 1.28 3.84 0 6.4-1.28 8.96-2.56l119.04-89.6h165.12v92.16h30.72v-92.16h165.12l119.04 89.6c2.56 2.56 6.4 2.56 8.96 2.56 2.56 0 5.12 0 6.4-1.28 5.12-2.56 8.96-7.68 8.96-14.08V592.64c1.28-3.84-1.28-8.96-5.12-11.52zM305.92 893.44l-92.16 69.12V600.32l92.16-69.12v362.24z m113.92-746.24l87.04-87.04 87.04 87.04c49.92 49.92 78.08 115.2 81.92 184.32H336.64c3.84-70.4 33.28-135.68 83.2-184.32z m256 738.56h-153.6v-122.88h-30.72v122.88H336.64v-153.6h339.2v153.6z m0-385.28v200.96H336.64V362.24h339.2v138.24z m124.16 463.36l-92.16-69.12V531.2l92.16 69.12v363.52z" p-id="1951" fill="#FF5722"></path><path d="M506.88 670.72c76.8 0 138.24-62.72 138.24-138.24 0-76.8-62.72-138.24-138.24-138.24-76.8 0-138.24 62.72-138.24 138.24-1.28 75.52 61.44 138.24 138.24 138.24zM614.4 531.2c0 60.16-48.64 107.52-107.52 107.52h-1.28l58.88-58.88-21.76-21.76-72.96 72.96c-12.8-5.12-24.32-12.8-34.56-21.76l152.32-152.32c15.36 20.48 26.88 46.08 26.88 74.24z m-133.12-104.96l-16.64 16.64 21.76 21.76 39.68-39.68c12.8 2.56 24.32 6.4 35.84 14.08L413.44 586.24c-10.24-16.64-15.36-34.56-15.36-55.04 0-51.2 35.84-93.44 83.2-104.96zM213.76 284.16c0-34.56-28.16-61.44-61.44-61.44-34.56 0-61.44 28.16-61.44 61.44 0 34.56 28.16 61.44 61.44 61.44 33.28 1.28 61.44-26.88 61.44-61.44z m-62.72 30.72c-16.64 0-30.72-14.08-30.72-30.72s14.08-30.72 30.72-30.72c16.64 0 30.72 14.08 30.72 30.72s-12.8 30.72-30.72 30.72zM721.92 161.28c25.6 0 46.08-20.48 46.08-46.08s-20.48-46.08-46.08-46.08S675.84 89.6 675.84 115.2s20.48 46.08 46.08 46.08z m0-61.44c8.96 0 15.36 6.4 15.36 15.36s-6.4 15.36-15.36 15.36-15.36-6.4-15.36-15.36 7.68-15.36 15.36-15.36zM861.44 268.8c-51.2 0-92.16 40.96-92.16 92.16s40.96 92.16 92.16 92.16 92.16-40.96 92.16-92.16-40.96-92.16-92.16-92.16z m0 154.88c-34.56 0-61.44-28.16-61.44-61.44 0-34.56 28.16-61.44 61.44-61.44 34.56 0 61.44 28.16 61.44 61.44 0 33.28-28.16 61.44-61.44 61.44zM74.24 500.48h30.72V716.8H74.24zM922.88 485.12h30.72v122.88h-30.72zM229.12 53.76h30.72v154.88h-30.72zM12.8 23.04h30.72v76.8H12.8zM968.96 901.12h30.72v107.52h-30.72zM614.4 824.32h30.72v30.72H614.4zM552.96 824.32h30.72v30.72h-30.72zM614.4 762.88h30.72V793.6H614.4zM552.96 762.88h30.72V793.6h-30.72z" p-id="1952" fill="#FF5722"></path></svg> -->
<svg t="1712068238539" class="icon" viewBox="0 0 1024 1024" version="1.1" xmlns="http://www.w3.org/2000/svg" p-id="26881" width="256" height="256"><path d="M383.613 333.859h277.493c18.724 0 36.743-7.924 48.757-22.284 28.624-34.025 55.8-75.816 61.884-113.243 12.268-74.934-19.839-112.989-112.989-112.989-93.13 0-61.63 61.122-97.846 66.17-26.98 3.737-26.022-31.872-68.42-66.072-30.463-24.457-64.584 44.648-104.791 45.078-46.918 0.626-112.911-12.346-112.911 67.813 0 32.38 28.389 76.168 59.38 112.461 12.443 14.537 30.366 23.068 49.441 23.068z" fill="#ec6337" p-id="26882"></path><path d="M729.8 405.252c-14.811-16.807-36.313-26.218-58.675-26.218h-296.139c-21.404 0-42.046 8.628-56.837 24.125-93.053 97.493-178.884 236.68-178.884 338.184 0 89.472 89.922 202.461 200.818 202.461h343.839c110.896 0 200.818-112.030 200.818-202.461 0-103.343-69.025-238.597-154.937-336.091v0zM639.35 528.416l-59.537 108.020c-5.225 9.489 1.643 21.17 12.443 21.17h16.884c7.846 0 14.282 6.339 14.282 14.263 0 7.846-6.359 14.282-14.282 14.282h-42.475c-8.275 0-14.889 6.613-14.968 14.889v7.043c0 7.825 6.359 14.282 14.263 14.282h43.18c7.846 0 14.282 6.339 14.282 14.263s-6.359 14.282-14.282 14.282h-43.18c-7.826 0-14.263 6.359-14.263 14.282v36.293c0 7.825-6.359 14.263-14.282 14.263h-25.846c-7.846 0-14.282-6.339-14.282-14.263v-36.293c0-7.846-6.359-14.282-14.282-14.282h-42.73c-7.846 0-14.282-6.359-14.282-14.282 0-7.924 6.359-14.263 14.282-14.263h42.652c7.924 0 14.282-6.359 14.361-14.282l0.097-6.966c0.078-8.276-6.632-15.066-14.987-15.066h-42.125c-7.846 0-14.282-6.339-14.282-14.263 0-7.846 6.359-14.282 14.282-14.282h16.454c10.878 0 17.668-11.661 12.443-21.15l-59.537-108.020c-5.225-9.489 1.643-21.15 12.443-21.15h28.37c5.4 0 10.37 3.032 12.718 7.826l48.482 96.711c5.224 10.448 20.191 10.448 25.513 0l48.482-96.711c2.426-4.793 7.318-7.826 12.697-7.826h28.389c10.957 0.157 17.843 11.739 12.62 21.228v0z" fill="#ec6337" p-id="26883"></path></svg>