<svg t="1712491610800" class="icon" viewBox="0 0 1024 1024" version="1.1" xmlns="http://www.w3.org/2000/svg" p-id="48396" width="500" height="500"><path d="M634.350933 131.46112c21.89312 16.667307 46.35648 32.054613 69.536427 46.158507 1.286827 1.283413 3.863893 1.283413 6.437547 2.563413 12.878507 3.846827 42.496 33.338027 42.496 43.595093 0 10.257067 9.0112 8.977067 36.05504 7.693654 3.86048 0 18.025813-3.846827 20.60288-3.846827 3.863893 1.28 15.45216 6.41024 15.45216 15.383893 0 12.823893-5.154133 20.514133 6.437546 23.08096a80.325973 80.325973 0 0 1 33.481387 11.537067c9.0112 8.977067 24.466773 11.54048 27.040427 25.644373 3.863893 11.537067 2.577067 23.08096-1.286827 34.618027-3.863893 6.41024-5.154133 15.387307-2.577067 23.08096 1.29024 11.537067 3.863893 20.514133-3.86048 28.207787-7.727787 7.69024-3.863893 16.667307-18.029226 8.977066-14.165333-7.697067-29.617493-12.823893-48.933547 8.973654-12.875093 12.82048-25.7536 24.36096-41.20576 33.334613-10.30144 8.977067-11.588267 28.207787-16.738987 6.41024-5.154133-21.797547-16.738987 1.283413-25.7536 1.283413s-15.45216 1.28-12.878506-10.257066c2.577067-11.54048-11.588267-12.823893-25.7536 1.28s-32.191147 25.644373-36.05504 12.823893c-3.863893-12.823893-9.0112-8.977067-15.45216-1.283413-6.437547 7.693653-30.90432 0-28.330667 15.387306 2.577067 15.383893 1.29024 14.103893 10.30144 25.64096 9.014613 8.977067 11.59168 24.36096 5.154133 35.90144-7.727787 10.257067 2.573653 14.103893-2.577066 25.644374-5.154133 11.537067 0 20.514133-16.738987 17.95072-16.7424-2.566827-2.577067 24.36096 2.573653 25.64096 5.154133 1.283413 10.30144-1.28 14.165334-11.537067 3.863893-10.257067 11.588267-12.823893 20.60288 5.126827 3.863893 10.257067 10.30144 17.954133 19.316053 23.08096 9.0112 7.69024 15.45216 6.41024 15.45216 25.64096 0 19.234133 7.724373 14.103893 7.724373 25.644373 0 11.537067 1.29024 16.667307 10.30144 11.537067 9.014613-5.126827 20.606293-8.973653 21.89312 6.413653 1.286827 15.387307-1.286827 23.077547 9.0112 28.207787 5.154133 5.126827 11.59168 8.977067 16.7424 14.103893 5.15072 5.126827 2.573653 5.126827-1.286826 28.207787-3.863893 23.077547-7.727787 25.644373-2.577067 32.0512 2.577067 2.566827-1.286827 6.413653-6.437547 10.26048-5.154133 3.846827-3.863893 11.537067 3.863894 10.257066 10.30144-2.563413 3.86048 14.103893 2.573653 23.077547v12.823893h-3.863893c-9.0112 1.28-23.176533 30.7712-25.7536 41.028267-2.573653 10.257067-37.341867 5.126827-46.353067 5.126827-9.018027 0-15.455573-5.126827-10.304853-17.947307 5.15072-12.823893 1.286827-35.90144-9.0112-29.4912-10.304853 6.41024 2.573653 17.95072-6.44096 23.077547-9.0112 5.13024-10.30144-3.846827-10.30144-17.947307 0-14.103893 11.588267-30.774613-1.286827-35.90144-2.577067-1.283413-5.154133-1.283413-6.44096-1.283413-2.573653 0-10.30144-7.693653-18.025813-10.257067-7.727787-2.563413-14.165333-5.126827-10.30144-12.82048 3.863893-6.41024 6.437547-12.823893 7.724373-20.514133 0-5.13024-1.286827-7.693653-1.286827-6.413654-1.286827-3.846827-2.573653-8.977067-3.863893-12.82048 0 0-2.573653-17.95072-6.437547-20.514133-3.863893-2.563413-24.466773 1.283413-30.90432 2.563413-28.330667 5.13024-42.496 20.514133-48.933546-6.41024-6.437547-26.924373-55.371093-32.0512-59.231574-12.82048-3.863893 19.23072 1.286827 51.285333-10.30144 57.695574-11.59168 6.41024-12.878507 15.387307-25.757013-5.126827-12.875093-20.514133-39.91552-5.13024-38.628693 5.126827 1.286827 10.257067-20.60288-6.41024-18.029227 15.387306 2.577067 21.797547-15.45216 30.7712-19.316053 37.18144-3.86048 6.41024-21.889707 17.954133-18.025814-7.693653 3.863893-25.64096-1.286827-34.618027-11.588266-43.59168-10.30144-8.977067-20.60288-5.13024-11.59168 11.537067 9.014613 16.67072 9.014613 32.054613 2.577066 33.338026-7.727787 1.283413-15.45216 2.563413-24.466773 2.563414v-1.28c-5.154133-8.977067-1.286827-19.234133-5.154133-28.207787a129.73056 129.73056 0 0 1-7.724374-32.054613c0-7.693653-12.875093-5.13024-33.477973-14.103894-20.60288-8.977067-18.029227 3.846827-29.617493 1.28-11.588267-2.56-16.738987-25.64096-19.316054-50.005333-2.573653-24.357547 1.286827-17.947307-15.45216-17.947307s-12.875093-8.977067-15.45216-21.797546c-2.573653-12.82048-14.165333-6.41024-21.889706-23.077547-7.727787-16.67072 23.176533-34.618027 33.477973-34.618027s7.727787-17.954133 15.45216-21.797546c7.727787-3.846827 6.44096-8.977067 11.59168-24.36096 5.15072-15.387307-9.014613-24.36096-19.319467-32.054614-10.298027-7.693653 5.154133-10.257067 3.867307-20.514133-1.29024-10.257067 6.437547-7.693653 12.875093-8.977067 6.437547-1.28 7.727787-10.257067 12.878507-23.077546 5.15072-12.823893 33.477973 5.126827 48.930133 12.82048 15.45216 7.693653 11.59168 11.537067 21.89312 25.644373 10.30144 14.103893 30.90432-6.41024 51.5072-12.823893 20.60288-6.41024 12.875093 8.977067 23.176534 32.054613 10.30144 23.08096 21.89312 15.387307 29.617493 15.387307 7.727787 0 9.014613-1.283413 18.029227-2.563414 9.0112-1.283413 7.724373-2.566827 19.316053-11.54048 11.588267-8.977067 32.191147-57.698987 42.496-71.80288 10.298027-14.103893 12.875093-20.514133 10.298027-29.4912-2.573653-8.973653 1.286827-8.973653 6.437546-21.794133 5.154133-12.82048 25.7536 1.283413 37.341867-6.41024 11.59168-7.693653 5.154133-14.103893 11.59168-5.13024 6.437547 8.977067 9.0112 14.103893 15.45216 7.693653 6.437547-5.126827 10.30144-14.103893 7.727787-21.797546-2.577067-10.257067 9.0112-12.82048 10.30144-23.077547 1.286827-10.257067 0-12.82048 5.15072-23.077547 5.15072-10.26048 2.573653-16.67072 5.15072-20.514133 2.573653-3.85024 18.025813-16.67072 21.889706-26.927787 3.863893-10.257067 6.437547-16.667307 14.165334-16.667306 7.724373 0 12.875093-10.257067 33.477973-23.08096 20.606293-12.82048-6.437547-29.4912-21.889707-41.028267-15.45216-11.537067-10.30144-8.977067-11.588266-24.36096-1.286827-7.693653-3.863893-14.103893-1.286827-16.667307 2.573653-2.563413 10.30144-1.283413 14.165333-1.283413 7.724373 1.283413 10.298027-7.693653 5.147307-17.95072-9.0112-3.846827 7.727787-6.41024 14.165333-6.41024z" fill="#FF5722" p-id="48397"></path></svg>