<svg t="1704469254893" class="icon" viewBox="0 0 1024 1024" version="1.1" xmlns="http://www.w3.org/2000/svg" p-id="1950" width="250" height="250"><path d="M824.32 581.12l-117.76-88.32V346.88c0-83.2-32-162.56-92.16-221.44l-97.28-97.28c-6.4-6.4-15.36-6.4-21.76 0l-97.28 97.28c-58.88 58.88-92.16 138.24-92.16 221.44v145.92l-117.76 88.32c-3.84 2.56-6.4 7.68-6.4 12.8v400.64c0 6.4 3.84 11.52 8.96 14.08 2.56 1.28 5.12 1.28 6.4 1.28 3.84 0 6.4-1.28 8.96-2.56l119.04-89.6h165.12v92.16h30.72v-92.16h165.12l119.04 89.6c2.56 2.56 6.4 2.56 8.96 2.56 2.56 0 5.12 0 6.4-1.28 5.12-2.56 8.96-7.68 8.96-14.08V592.64c1.28-3.84-1.28-8.96-5.12-11.52zM305.92 893.44l-92.16 69.12V600.32l92.16-69.12v362.24z m113.92-746.24l87.04-87.04 87.04 87.04c49.92 49.92 78.08 115.2 81.92 184.32H336.64c3.84-70.4 33.28-135.68 83.2-184.32z m256 738.56h-153.6v-122.88h-30.72v122.88H336.64v-153.6h339.2v153.6z m0-385.28v200.96H336.64V362.24h339.2v138.24z m124.16 463.36l-92.16-69.12V531.2l92.16 69.12v363.52z" p-id="1951" fill="#FF5722"></path><path d="M506.88 670.72c76.8 0 138.24-62.72 138.24-138.24 0-76.8-62.72-138.24-138.24-138.24-76.8 0-138.24 62.72-138.24 138.24-1.28 75.52 61.44 138.24 138.24 138.24zM614.4 531.2c0 60.16-48.64 107.52-107.52 107.52h-1.28l58.88-58.88-21.76-21.76-72.96 72.96c-12.8-5.12-24.32-12.8-34.56-21.76l152.32-152.32c15.36 20.48 26.88 46.08 26.88 74.24z m-133.12-104.96l-16.64 16.64 21.76 21.76 39.68-39.68c12.8 2.56 24.32 6.4 35.84 14.08L413.44 586.24c-10.24-16.64-15.36-34.56-15.36-55.04 0-51.2 35.84-93.44 83.2-104.96zM213.76 284.16c0-34.56-28.16-61.44-61.44-61.44-34.56 0-61.44 28.16-61.44 61.44 0 34.56 28.16 61.44 61.44 61.44 33.28 1.28 61.44-26.88 61.44-61.44z m-62.72 30.72c-16.64 0-30.72-14.08-30.72-30.72s14.08-30.72 30.72-30.72c16.64 0 30.72 14.08 30.72 30.72s-12.8 30.72-30.72 30.72zM721.92 161.28c25.6 0 46.08-20.48 46.08-46.08s-20.48-46.08-46.08-46.08S675.84 89.6 675.84 115.2s20.48 46.08 46.08 46.08z m0-61.44c8.96 0 15.36 6.4 15.36 15.36s-6.4 15.36-15.36 15.36-15.36-6.4-15.36-15.36 7.68-15.36 15.36-15.36zM861.44 268.8c-51.2 0-92.16 40.96-92.16 92.16s40.96 92.16 92.16 92.16 92.16-40.96 92.16-92.16-40.96-92.16-92.16-92.16z m0 154.88c-34.56 0-61.44-28.16-61.44-61.44 0-34.56 28.16-61.44 61.44-61.44 34.56 0 61.44 28.16 61.44 61.44 0 33.28-28.16 61.44-61.44 61.44zM74.24 500.48h30.72V716.8H74.24zM922.88 485.12h30.72v122.88h-30.72zM229.12 53.76h30.72v154.88h-30.72zM12.8 23.04h30.72v76.8H12.8zM968.96 901.12h30.72v107.52h-30.72zM614.4 824.32h30.72v30.72H614.4zM552.96 824.32h30.72v30.72h-30.72zM614.4 762.88h30.72V793.6H614.4zM552.96 762.88h30.72V793.6h-30.72z" p-id="1952" fill="#FF5722"></path></svg>