<svg t="1712674188384" class="icon" viewBox="0 0 2239 1024" version="1.1" xmlns="http://www.w3.org/2000/svg" p-id="43949" width="500" height="500"><path d="M2237.306929 7.976698v803.892346h-0.559327v211.425505h-254.213999V811.869044h-426.766297V530.387866L1982.533603 0.845283h241.349485l-360.486079 554.15296h119.136594V403.420698L2237.306929 7.976698zM681.539623 7.976698v803.892346h-0.559326v211.425505H426.766297V811.869044H0V530.387866L426.766297 0.845283h241.349485L307.629703 554.998243h119.136594V403.420698L681.539623 7.976698zM1162.560613 400.624064v-58.449643a43.20799 43.20799 0 1 0-86.276148 0v184.857485L812.841574 911.149539a219.116247 219.116247 0 0 1-16.500139-30.76297 232.120594 232.120594 0 0 1-18.457782-92.428742V236.741332a232.260426 232.260426 0 0 1 18.457782-92.428743 233.938406 233.938406 0 0 1 125.848515-125.848514 232.120594 232.120594 0 0 1 92.428742-18.457783h209.747525a232.120594 232.120594 0 0 1 92.428743 18.457783 245.264772 245.264772 0 0 1 73.97096 49.360584zM1459.283445 787.258668a232.120594 232.120594 0 0 1-18.457783 92.428743 233.938406 233.938406 0 0 1-125.848514 125.848514 232.120594 232.120594 0 0 1-92.428743 18.457783h-209.747524a232.120594 232.120594 0 0 1-92.428743-18.457783 237.713861 237.713861 0 0 1-74.949782-50.339405 249.599554 249.599554 0 0 1-25.72903-30.762971l254.773327-371.39295v129.903634a43.20799 43.20799 0 1 0 86.276148 0V426.772589l237.713861-347.202069a233.239247 233.239247 0 0 1 59.568297 157.170812v550.517336z" fill="#FF5722" p-id="43950"></path></svg>