<svg t="1712490927303" class="icon" viewBox="0 0 1040 1024" version="1.1" xmlns="http://www.w3.org/2000/svg" p-id="47552" width="240" height="240"><path d="M578.8 742.8l-5.5 10.2-21 27.5-18.3 29.2-3.7 11-0.9 4.6 0.9 2.7 1.9 1.9 13.7 0 1.8 1.8 9.2 0 24.7-7.3 13.7-9.2 11.9-10.9 2.7-4.6 0.9-4.6 0-10.1-1.8-10 0-10.1 2.8-2.7 1.8-6.4-0.9-16.7-3.7-5.5-3.6-1.8-3.7-0.9-4.6 0-3.6 1.8L578.8 742.8M635.5 485.5l-2.7-9.2-4.6-4.5-2.7-0.9-3.7 0-19.2 21-3.7 2.7-3.6 3.7-16.5 22.9-9.1 18.3-1.9 7.3 3.7 5.5 3.7 2.7 5.4 1.9 16.5 0 5.5 0.9 4.6 1.8 13.7-5.5 6.4-3.6 5.5-5.5 4.6-16.5 1.8-17.4L635.5 485.5M627.3 0l6.4 0 6.4 1.9 4.8 2.7 12.8 11.9 5.5 3.7 5.5 1.8 13.7 11.9 11.9 12.8 0.9 3.7 0 2.7-4.6 14.6 0 2.8-5.5 8.2-11.9 9.2-2.7 3.6-1.8 10.3-1 0-0.9 0.9-1.8 0.9 5.5 5.5 0.9 0 0.9-0.9 14.7-8.3 41.1-27.6 13.8-5.5 3.6-0.9 2.8 0 3.6 0.9 3.7 1.9 7.3 0 4.6 0.9 14.6-2.8 5.5 0 27.6 5.5 4.6 0 8.2 1.8 21.1 11 3.6 7.3 3.7 13.9 0 4.6-3.7 8.3L850 122.8l-4.6 13.7-0.9 4.6-1.8 4.6-3.7 3.7-4.5 2.7-1 5.5-2.7 5.5-7.3 9.1-13.9 12.8-18.3 23.8-3.7 8.3-1.8 0L783 218l-2.7 2.7-2.8 3.7-2.7 2.7 0 4.6-1.8 2.7-2.8 1.9-12.8 5.5-1.8 3.6 0.9 2.8L756.5 250l-5.5 8.4-0.9 1.8 0 1.9-3.7 0-3.6 1.8-3.7 3.7-1.8 3.6 4.6 4.6-1 1.8-5.4 3.7-3.7 3.6 1.8 2.8 0 8.2-4.6 19.2 1 2.8 0 2.7 1.8 1.9 1.8 2.7 7.3 3.7 2.8-1.9 7.3-7.3 2.8-1.8 2.7-0.9 3.7 0.9 4.5 1.8 46.9-16.5 44.8-7.3 7.3-3.6 15.6-3.7 8.2-5.5L891.2 284l3.6-0.9 18.3-1.8 8.3 1.8 7.3-1.8 22.9-1.8 23.7 1.8 32.3 8.2 11.8 5.5 4.6 4.6 3.7 5.5 9.1 8.2 0.9 1.8 1.9 2.8 0 3.6-0.9 3.7-3.7 3.7-5.5 3.6-5.5 2.8-7.3 1.8-32 12.8-3.7 0-5.7 0.9-4.5 1.8-8.3 5.5L958 360l-4.6 2.7-14.6 2.8-18.3 10-9.2 3.7-6.4 0-12.8 5.5-28.4 8.2-14.6 1.8-4.6 3.7-4.6 2.7-30.3 10.1-2.8-0.9-2.7 0-6.4 0.9c-3.934 1.8-7.9 3.634-11.9 5.5l-3.7-1.8 5.5-3.7 6.4-2.7 5.5-4.6 1.8-1.8 0.9-3.7 15.8-9.2 7.3-6.4 31.1-32.9-3.7-5.5-5.4 2.8-25.7 5.4-5.4 1.9-4.6 2.7-45 10.1-44 13.7-3.6 5.5 0 2.7 3.6 7.4 4.6 11.9 1.8 11.1 0 6.4-6.4 45.8 1.9 11.9 5.5 10.9 7.3-0.9 12.8 1.9 6.4 2.7 6.4 1.8 13.7 1.9 7.3 0 1.9 0.9 1.8 1.8 4.6 0.9 3.6 1.9 1 1.8 0 10-1 1.9-1.8 2.7-8.2 7.3-11.9 4.6-9.2 5.5-11.9 4.6-21.9 14.6-8.3 9.2 1.9 3.6 1.8 13-1.8 18.3 0.9 7.3 1.8 6.4 5.5 3.7 4.6 0.9 5.5-0.9 31.1 7.3 10 3.7 1.9 7.3 0 7.3 0.9 6.4 0.9 3.7 4.6 6.4 3.6 3.7 3.7 2.7 4.6 1.8 20.3 4.6 5.5 3.7 14.6 1.8 2.8 0 3.6 0.9 3.7 1.8 4.6 1 8.2 2.7 4.6 0.9 2.7 2.8 3.7 2.7 1.8 4.6 0.9 4.5-0.9 2.8-1.8 2.7-2.8 2.8-3.6 5.5-1.9 3.6 0.9 5.5-10.9 9.2-23.8 12-40.5 27.5-31.1 15.6-3.6 3.6-3.7 1.8-4.6 1-3.6 0-8.3 0.9-3.6 0.9-3.7 2.7-8.2 10.1-3.7 11.9-1.8 11.9 0 11.9 2.7 25.6 0 18.3-1.8 6.4 2.8 6.4 3.6 13.9 0.9 8.2-1.8 33-3.7 1.8-1.8 3.7 0 3.6-0.9 3.7 0 8.2-1.8 2.8-29.3 24.7-1.8 1.8-3.7 9.2-0.9 1.8-1.8 1.8-2.8 0.9-3.6 0-6.5-2.7-8.2-1.8-13.7 0-13.9-10.1-10.1-10.1 2.8 0 1.8-0.9 0.9-1.8 0-0.9-1.8-5.5-5.5-11.9 0-6.4-4.6-0.9-2.7-1-0.9-0.9 0-0.9-1-5.5-5.4-15.5-1.9-16.5 3.7-32.2-0.9-4.6 0-4.6-0.9-9.1 0-3.7-1-4.5-2.7-2.8-2.8-3.6-3.6 0-12.8 4.5-2.8 0-2.7-0.9-11.9 6.4-5.5 1.9-3.7 0-2.7-1-5.5 1.9-10.1 4.5-3.6 4.6-21.1-8.2-4.5-2.8-7.4-7.3-1.8-5.5 1.8-57.6 7.4-12.8 9.1-11.9 31.1-31.1 19.2-23.1 7.4-12.8-1-1.8-1.8-1.8-3.6-1.9-10.1-1.8-5.5-5.5-3.7-5.5-4.5-13.7-3.7-29.3 1.8-4.6 6.4-11.9 1 1.9 0.9 0.9-0.9 2.7-1.9 2.8-0.9 2.7 7.3 12.8 9.2 11 6.4 0 25.6 3.7 6.4 0 11.9-3.7 4.6-3.6 2.7-3.7 3.7-8.2 1.8-17.4-1.8-3.7-0.9-3.6 0-7.4 2.7-7.3 1.8-8.2-2.7-2.8-3.7-0.9-2.7 0.9-3.7 2.8-4.5-1.8-9.2 0-17.4 3.6-4.6 0 8.3-18.3 0-3.6-0.9-3.7-1.9-3.8-3.6-3.7-3.7-2.8-8.2-4.5-4.6-0.9-9.1 0-5.5 0.9-2.8-0.9-3.6 0-3.7 0.9-3.7 1.8-7.3 4.6-3.6 0.9-3.7 0-2.7 1.8-1 1.9 1 2.9-1 2.7-4.5 0.9-10.1 8.3-2.7 3.6-7.4 3.7-4.5 0-2.8 2.7-2.7 3.7-6.4 12.8-3 3.7-3.6 2.7-4.6 0.9-3.6 4.6-9.2 7.3-26.5 11.9-36.6 26.5-6.4 3.7-6.4 1.8-4.6 5.5-5.5 4.6-24.7 11L338 709.8l-4.6 4.6-14.6 5.5-6.4 3.7-5.7 5.5-31.1 14.8-4.6 2.7-4.5 3.7L262.8 750.3l-11.9-5.5-2.7-2L244.5 742.8l-2.7 2.9-1.9 4.6-3.6-3.7-4.6-0.9L226.2 745.7l-4.6-0.9-17.4 0.9-5.4-0.9-5.5-2-3.7-2.8-3.7-4.5-2.7-11 0-2.8 5.5-12.8 0.9-3.6 0-11.9 0.9-2.8 2.8-3.6-1.9-5.5 0-9.2 1-2.7 1.8-2.8 2.7-2.7-1.8 20.1-0.9 4.6 1.8 10.1 2.8 4.5 9.1 2.8 2.7-0.9 0-2.8 1-1.8 5.5-8.2 0.9-2.8 0-2.7 3.6 1.8 2.8 1.8 10 8.3 3.7 0.9 2.7-0.9 4.6-2.8L250 695.2l5.5-1.8 17.4-11.9 10-3.7 11.9-9.1 3.7-1.9 2.7 0 3.7 1 2.7-7.4 10.3-12.8 6.4-5.5 25.6-18.3 3.7-8.2 3.6-2.7 2.8-3.7 8.2-5.5 6.4-6.4 0.9 1.8L377.4 600l1.8 0 1.8-1.8 0.9-2.7 6.4-8.3 15.6-14.8 7.3-10 31.1-28.4 57.8-63.1 30.2-28.4-1.8-2.7-1.8-1.9-1.9 0-2.7 0.9-4.6 1-2.7 0.9L512 440.7l-10 3.6-16.5 1.9L480 448l-4.8 2.7-1.8 1.9-0.9 1.8-7.3 0-10.1 6.4-2.7 0.9-3.7 0-38.4 21.1-7.3 0.9-8.3 0-9.1 5.5-15.6 2.7-9.1 3.7-3.7 4.5-28.3 15.6-16.5 14.6L310.6 534l-3.9-5.5c-7.334 4-14.634 7.966-21.9 11.9l-15.6 11-4.6 4.5-1.8 0 0.9-3.6 1.8-2.8 4.6-3.6 2.8-2.8 1.8-2.7 0.9-2.8L275.6 534l3.7 1.8 3.6-0.9 2.8-2.7 0.9-1.9 0-1.8-0.9-2.7 0.9-2.8 1.8-2.7 3.7-1 2.7-3.6 2.8-1.8 14.8-7.4 2.7-1.8L317 502l7.3-3.7 1.8-2.7 0.9-1-3.6-8.2-1.9-6.4-3.6-20.1-2.8-5.5-1.8-2.8-2.7-2.7-3-1.8-2.7-0.9L299.4 448l-4.6 2.7L286.6 458l-13.7 8.3-6.4 0.9 0 1.8-1.9 0.9-0.9 0-0.9-0.9-13.7 7.3-14.7 5.5-6.4 3.7-5.5 4.6-6.4 9.1-1.8 4.6-4.6 2.7-4.5 3.7-17.4 17.4c-1.866 0.934-3.7 1.834-5.5 2.7l-5.5 1.9-2.7 6.4-8.3 8.2-4.6 2.7-10 4.6-8.4 7.3-4.6 1-6.4 4.5-2.8 2.8-10 13 1.8 3.6-0.9 3.7-0.9 7.3-5.5 4.6-1.8 1.8-1.9 2.8-7.3 1.8-25.6 16.4-6.4 2.8-7.3 0.9-3.7 0-3.7-0.9-0.9-2.8L54 623.8l-3.6 1.9-3.7 0-3.7-1-6.4-2.7-10.9-8.2L0 561.4l1.9-25.6 0.9-3.6 2.7-3.7-0.9-1.8 0-1.9 0.9-3.6 5.5-11 3.7-3.7 0-6.4 1.8-5.5 5.5-11.8 7.3-11 2.8-5.5 1.8-6.4 2.7-6.4 7.3-11.9 7.4-7.3-0.9-2.8 23.7-60.6 1.9-2.7 3.6-3.7 3.7 0 2.7 1.9 1.9 2.7 0 12.8 1.8 2.8 1.8 7.3 0.9 8.2 7.4 39.6-1 7.3 4.6 27.4L103.4 480l-0.9 6.4-1.8 6.4 0.9 6.4 6.4 18.3 2.7 0.9 2.8 0 2.7-1.8 6.4-6.4 1.9-0.9 3.6-0.9 8.3-9.2 5.4-3.6 17.6-9.2 4.6-4.6 3.6-5.5-1.8-17.3-4.6-16.5-6.4-15.6-9.1-15.7-2.9-22 0-22.8 2.9-3.7 3.6-2.7 1-0.9 4.5 0 4.6 4.5 3.7 2.8 1.8 1.8 1.8 0.9 1.9 0 2.7-0.9 2.8-5.5 6.4-35.7 1.8-5.5 0-27.4 3.6-26.5-0.9-7.4 0.9-7.5 0-12.8 1-3.6 0-19.2 0.9-3.7 3.6-1.8 5.5 0 0.9-0.9 5.5 5.4 1.9 1 7.3-1.9 6.4 0 6.4 0.9 6.4 1.9 11.9 1.8L250 219.8l6.4-0.9 19.2 11 4.6 3.6 3.6 4.6 2.8 4.6 0 6.4-11 86.2 0 7.3-1.8 13.7-3.7 6.4 1.8 3.7 0 3.6-2.7 13.8-5.5 17.3-0.9 5.5 1.8 10.1 3.7 3.8 6.4-5.6 16.5-6.4 3.6-2.8 2.8-3.6 1.8 0 1.8-1 2.8-3.6 2.7-5.5 3.9-3.7-3-3.6 0-12.8 0.9-4.6 0-4.6-3.6-7.3 0.9-5.5 2.7-4.6 3.9-3.6 12.8-9.2 8.2-9.1 5.5-1.9 11.9-5.4 6.4-1.9 14.7 3.7 43 14.6 3.6 6.4 2.8 7.3 0.9 7.4 0 9.1-2.8 4.6-1.8 14.6 0 5.5-0.9 4.6-1.8 4.6-3.7 3.6-0.9 16.5-4.6 14.8 1.8 1.8 1 2.8 0 9.1 0.9 2.8 1.8 1.8 3.7 0.9 2.7-3.6 2.8-2.8 7.3-1.8 7.3-4.6 3.7-1.8 3.6 0 2.8 6.4 2.7-2.7 1.8-4.6 2.8-3.7 1.8-1.8 1.8 0 2.8-2.8 1.8 0 5.5 2.8 2.7-0.9 1.9-0.9 4.5-5.5 11.2-5.7 20.1-2.8 6.4-1.8 6.4-2.7 5.5 1.8 4.6 0 5.5-0.9 20.1-7.3 5.5-0.9 16.5-13.8 13.7-15.5 11-18.3 17.4-38.4 7.3-9.2 8.2-7.3 9.4-11 24.7-43.2 5.5-7.3 13.7-25.6 21-32 15.6-35.7 7.3-13.7 4.6-6.5 2.7-2.7 3.7-2.7 0-2.8 1.8-3.6 4.6-5.5 1.8-2.8 0.9-2.7-1.8-2.8-3.7-2.7-16.4 1.8-15.6 0-24.7 12.8L679.6 112.8l-5.4-1L640.1 134.7l-6.4 5.5-5.5 6.4-4.6 7.3-29.2 39.4-8.3 14.6-16.4 22-14.7 22.8-37.5 39.6L494.6 295l-22.1 0.9-6.4-10-2.7-6.4-1.9-6.5-0.9-6.4 0-5.4 0.9-6.6 23.1-32.1 7.3-7.3 3.7-7.3 29.2-38.4 3.7-7.3 50.3-69.8 1.8-6.4 16.5-24.7 5.5-10.9 8.2-11 12.8-25.6L627.3 0" fill="#FF5722" p-id="47553"></path></svg>