<svg t="1712669919831" class="icon" viewBox="0 0 1024 1024" version="1.1" xmlns="http://www.w3.org/2000/svg" p-id="7126" width="240" height="240"><path d="M982.208547 511.452991c0-261.032479-211.582906-472.615385-472.615385-472.615384s-472.615385 211.582906-472.615384 472.615384c0 157.538462 77.128205 297.135043 195.719658 383.015385 0.765812-0.984615 2.735043-3.282051 4.704273-4.813675 38.181197-28.991453 80.738462-39.165812 128-40.041026 14.441026-0.328205 26.25641-0.65641 35.555556-1.203419 7.65812-0.437607 16.957265-4.704274 23.302564-9.299145 1.312821 4.704274-0.765812 6.782906-0.765812 11.049573 0 22.536752 7.767521 41.791453 23.411966 57.764102 12.034188 12.14359 31.617094 16.957265 47.917949 19.80171 46.71453 8.095726 90.584615-9.846154 127.452991-37.415385 5.798291-4.047863 11.158974-8.642735 16.300855-13.45641l21.11453-21.77094c24.177778 9.080342 56.232479 21.223932 96.164102 36.649572 5.251282 1.969231 9.189744 3.610256 11.815385 4.813676 1.859829 0.765812 7.329915 2.516239 9.299145 4.594871 123.952137-85.223932 205.237607-227.993162 205.237607-389.688889z" fill="#1D97EA" p-id="7127"></path><path d="M598.974359 774.126496l1.422222-29.100855c0-0.984615 0.218803-1.859829 0.547009-2.735043 0.109402-0.328205 0.437607-0.547009 0.765812-0.765812 17.28547-8.533333 31.835897-16.957265 43.651282-25.381196 28.553846-20.129915 50.324786-46.823932 65.31282-79.863248 3.063248-4.704274 6.345299-4.813675 10.064958-7.439316 32.929915-24.505983 55.357265-56.779487 53.059829-99.664958-1.312821-24.505983-16.191453-44.526496-42.994872-43.213675-9.408547 0.437607-21.989744 5.14188-27.569231 12.690598-4.923077 6.564103-9.080342 14.112821-12.471795 22.427351-1.422222 3.500855-2.516239 4.594872-5.79829 6.017094-2.078632 0.875214-3.82906 1.203419-5.251282 0.984615 5.907692-12.909402 0.437607-50.871795-1.094018-62.468376-1.859829-13.894017-3.610256-27.350427-7.439316-42.119658-5.470085-20.676923-14.331624-39.822222-26.475213-57.217094-17.94188-25.490598-47.480342-44.964103-76.034189-56.123077-1.422222-0.547009-2.297436-0.109402-2.625641 1.312821-0.765812 3.063248-1.859829 5.907692-3.282051 8.752136-2.078632 4.266667-3.063248 8.861538-5.79829 13.347009-0.437607 0.65641-0.65641 1.422222-0.765812 2.297436-0.547009 5.360684-4.157265 8.861538-4.813676 14.222222-0.218803 1.750427-0.65641 3.17265-1.203418 4.376068-3.17265 6.126496-2.844444 11.596581-4.813676 17.613676-2.078632 6.454701-2.406838 11.705983-3.172649 18.051282-0.218803 2.078632-1.312821 3.282051-2.297436 5.032478-0.984615 1.750427-0.547009 2.188034 1.203419 1.531624 6.126496-2.406838 12.581197-3.391453 19.254701-2.953846 8.31453 1.094017 19.035897 4.813675 20.239316 14.331624 0.328205 2.297436-0.218803 4.704274-1.641026 7.220513-8.752137 16.410256-28.882051 24.287179-46.495726 24.94359-13.675214 0.547009-30.413675-5.579487-22.646154-22.974359 3.17265-5.579487 7.767521-9.62735 13.565812-12.14359 0.109402-0.109402 0.218803-0.218803 0.109401-0.437607 0 0 0-0.109402-0.109401-0.109402-1.750427-1.312821-3.391453-3.17265-4.594872-5.470085-15.206838-26.694017-26.037607-57.107692-33.805128-86.427351-0.437607-1.859829-1.422222-2.078632-2.735043-0.765811-2.188034 2.297436-5.14188 3.391453-7.111111 4.594871-35.117949 21.661538-60.389744 51.965812-87.083761 82.707693-2.188034 2.516239-4.813675 4.813675-7.767521 6.564102-0.547009 0.328205-1.094017 0.437607-1.750427 0.328205-5.470085-1.203419-10.064957-4.48547-10.283761-10.393162-0.65641-17.504274-0.547009-34.789744 3.063248-51.965812 0-0.109402 0.437607-2.516239 1.203419-7.329915 0.765812-4.704274 2.844444-8.642735 3.829059-13.237606 0.984615-5.032479 3.500855-9.517949 4.704274-14.550428 0.437607-1.969231 1.531624-3.610256 3.063248-4.923077 1.312821-1.094017 0.328205-1.750427-0.656411-0.984615-2.188034 1.750427-3.719658 2.844444-4.376068 3.282051-28.77265 14.550427-54.044444 41.353846-74.721367 66.406838-6.673504 7.986325-11.705983 14.988034-15.206838 20.895726-4.923077 8.533333-10.174359 19.364103-15.644444 32.382906-4.157265 8.31453-7.220513 17.066667-9.299146 26.147009-0.109402 0.875214 0.65641 7.548718-0.437607 6.564102-0.765812-0.65641-1.422222-1.969231-2.078632-3.938461-9.955556-31.288889-8.423932-67.063248-2.953846-99.117949 11.377778-66.188034 39.931624-125.593162 91.241025-168.150427 24.287179-20.129915 50.762393-36.540171 79.753847-49.449573 14.769231-6.564103 29.757265-14.441026 45.401709-18.817094 0.65641-0.218803 2.406838-1.312821 0-1.094017-2.953846 0.109402-5.907692-0.109402-8.752137-0.765812 8.642735-2.516239 18.379487-2.516239 25.709402-4.48547 8.205128-2.188034 14.659829-6.017094 22.536752-11.158974 18.270085-11.705983 32.820513-27.022222 43.760684-46.05812 0.218803-0.328205 0.65641-0.437607 0.984615-0.218803 0 0 0.109402 0 0.109402 0.109401 13.018803 11.268376 29.647863 33.805128 28.882051 51.528205-0.109402 3.063248-1.531624 6.892308-1.641025 10.721368 0 0.547009 0.328205 0.984615 0.875213 0.984615 7.876923 0 15.316239-0.875214 22.317949-2.735042 10.502564-2.735043 22.536752-2.188034 35.555555-1.969231 19.801709 0.437607 44.088889 7.548718 62.577778 17.28547 5.360684 2.844444 7.329915 6.892308 6.017094 12.034188-1.641026 6.235897-11.377778 12.034188-16.738461 14.769231-1.641026 0.875214-1.750427 1.750427-0.218804 2.844444 3.719658 2.735043 7.548718 5.360684 11.377778 7.986325C779.158974 216.615385 827.405128 293.305983 841.080342 377.435897c1.969231 11.815385 3.391453 24.94359 4.48547 39.275214 0.328205 4.813675 1.094017 9.955556 2.188034 15.206838 7.767521 35.883761 11.049573 70.673504 3.610257 106.994872-0.875214 4.266667-3.500855 12.252991-9.627351 9.080341-2.953846-1.531624-5.14188-5.798291-6.782906-8.97094-2.078632-3.82906-2.516239 0.218803-2.516239 1.531624 0.109402 4.923077-0.437607 10.830769-1.641026 17.504274-6.782906 35.883761-20.129915 68.376068-39.931624 97.586324-5.688889 8.31453-16.738462 19.911111-25.162393 6.126496-2.188034-3.610256-4.813675-7.329915-7.767521-11.158974-0.218803-0.328205-0.765812-0.437607-1.094017-0.109402l-0.109402 0.109402c-15.097436 14.659829-30.632479 28.335043-46.71453 40.916239-13.894017 10.940171-32.382906 35.22735-31.726496 54.37265 0.218803 6.017094 6.017094 15.753846 2.735043 20.895726-9.299145 14.769231-35.883761 12.471795-50.324786 10.393163-10.611966-0.984615-21.11453-2.188034-31.726496-3.063248z" fill="#2B1E1A" p-id="7128"></path><path d="M466.051282 117.278632c2.844444 0.65641 5.798291 0.875214 8.752137 0.765812 2.406838-0.109402 0.547009 0.984615 0 1.094018-15.644444 4.376068-30.632479 12.252991-45.40171 18.817094-28.882051 12.909402-55.466667 29.319658-79.753846 49.449572-51.418803 42.557265-79.863248 101.962393-91.241025 168.150428-5.470085 31.945299-7.001709 67.719658 2.953846 99.117948 0.65641 1.969231 1.312821 3.391453 2.078632 3.938462 1.094017 0.984615 0.437607-5.688889 0.437607-6.564103 1.750427 11.268376 3.17265 22.536752 4.266667 33.805128 0.218803 2.078632 0.984615 9.299145 2.406837 21.770941 1.312821 11.268376 1.750427 22.646154 1.312821 33.91453-23.411966-27.788034-38.509402-62.577778-44.526496-98.242736-1.312821-7.548718-2.625641-15.316239-4.047863-23.302564-0.109402-0.547009-0.65641-0.875214-1.094017-0.765812-0.109402 0-0.218803 0.109402-0.437607 0.109402-5.251282 3.500855-10.721368 13.237607-18.051282 11.815385-6.892308-1.312821-10.721368-11.487179-10.830769-17.613675-0.109402-5.798291 0.547009-11.487179 1.859829-17.176069 1.531624-6.673504 2.297436-14.003419 3.938461-20.020513 7.876923-29.319658 21.989744-53.388034 37.08718-79.644444 0.328205-0.547009 0.109402-1.203419-0.437607-1.531624-0.109402 0-0.109402-0.109402-0.218803-0.109402-25.052991-8.423932-31.288889-37.852991-38.509402-59.405128-0.328205-0.875214 0.218803-1.750427 1.094017-2.078632 0.109402 0 0.218803 0 0.218803-0.109402l26.147009-4.266667c4.266667-0.875214 68.704274-30.523077 68.704273-30.523077 11.268376-7.876923 26.037607-16.62906 34.352137-23.193162 28.882051-23.083761 62.358974-38.618803 97.805128-48.902564 0.65641-0.218803 1.750427-0.437607 2.188035-0.437607 4.704274-1.094017 17.066667-3.500855 19.145299-3.938462 5.579487-1.203419 18.051282-4.813675 19.801709-4.923077z" fill="#4A3631" p-id="7129"></path><path d="M509.593162 417.367521c-0.218803-0.65641-0.547009-1.203419-1.094017-1.750427-0.765812-0.765812-1.312821-1.422222-1.422222-1.969231-0.437607-1.531624-1.203419-2.735043-2.406838-3.719658-0.328205-0.218803-0.437607-0.547009-0.547008-0.875214-1.203419-4.704274-3.610256-7.001709-3.391453-12.471794 0-1.094017-0.547009-2.188034-1.422222-2.735043-2.406838-1.422222-2.406838-3.282051-3.391453-5.360684-2.844444-6.126496-6.017094-12.14359-9.517949-17.94188-1.641026-2.735043-3.610256-5.14188-5.907692-7.329915-0.218803-0.218803-0.547009-0.437607-0.875214-0.437607-3.063248-0.437607-5.907692 0.218803-8.642735 1.750428-27.459829 16.191453-47.699145 33.25812-75.705983 58.092307-5.251282 4.704274-19.692308 16.957265-26.147008 15.863248 3.938462-2.735043 8.095726-6.345299 7.329914-11.705983-1.422222-9.955556-12.034188-17.94188-21.005128-21.552136 0.875214-1.969231 1.203419-4.813675 0.875214-8.31453 0-0.437607 0-0.765812 0.218803-1.203419 1.422222-2.844444 2.297436-5.579487 2.406838-7.986325 0.547009-8.861538 0.547009-17.504274 0.109401-26.037607-0.109402-1.531624-0.65641-2.844444-1.859829-3.82906-6.017094-5.360684-12.252991-5.360684-19.254701-1.531623-9.080342 4.813675-17.394872 12.8-26.037606 20.676923-7.439316 6.892308-13.128205 12.909402-16.957265 18.051282-3.719658 5.032479-9.299145 10.502564-12.909402 17.504273-0.65641 1.312821-2.078632 3.282051-4.376069 6.126496-1.750427 2.188034-1.969231 4.923077-4.594871 7.001709 5.470085-13.128205 10.721368-23.958974 15.644444-32.382906 3.500855-5.907692 8.533333-12.909402 15.206838-20.895726 20.676923-24.94359 46.05812-51.85641 74.721367-66.406838 0.765812-0.328205 2.188034-1.422222 4.376069-3.282051 0.984615-0.875214 1.969231-0.109402 0.65641 0.984615-1.531624 1.312821-2.625641 2.953846-3.063248 4.923077-1.203419 5.032479-3.82906 9.517949-4.704273 14.550428-0.875214 4.704274-2.953846 8.533333-3.82906 13.237606-0.765812 4.813675-1.203419 7.220513-1.203419 7.329915-3.719658 17.28547-3.82906 34.461538-3.063248 51.965812 0.218803 5.907692 4.813675 9.189744 10.283761 10.393162 0.547009 0.109402 1.203419 0 1.750427-0.328205 2.953846-1.859829 5.579487-4.047863 7.767521-6.564102 26.694017-30.74188 51.965812-61.046154 87.083761-82.707693 2.078632-1.312821 4.923077-2.406838 7.111111-4.594871 1.312821-1.312821 2.297436-1.094017 2.735043 0.765811 7.767521 29.319658 18.598291 59.733333 33.805128 86.427351 1.312821 2.297436 2.844444 4.047863 4.594872 5.470085 0.109402 0.109402 0.109402 0.328205 0.109402 0.437607l-0.109402 0.109402c-5.579487 2.625641-10.174359 6.673504-13.347009 12.252991zM679.603419 528.082051c-2.516239-11.268376 3.938462-53.278632-3.938462-62.687179-1.312821-1.531624-2.844444-2.953846-4.48547-4.047863-0.328205-0.218803-0.437607-0.547009-0.547008-0.875214-0.65641-2.953846-1.750427-5.688889-3.391453-8.205128-1.641026-2.406838-2.625641-4.157265-3.17265-5.360684-3.719658-8.31453-7.876923-16.519658-12.471795-24.396581-1.422222-2.406838-2.953846-6.126496-5.032478-8.861539-2.735043-3.719658-4.704274-7.111111-7.548718-10.830769-11.596581-15.425641-22.755556-28.991453-39.056411-37.962393-6.564103-3.610256-10.721368-6.235897-16.957265-2.406838-7.329915 4.48547-13.237607 10.502564-17.723077 17.832479-2.078632 3.391453-4.704274 5.14188-4.704273 9.846154 0 1.859829-0.109402 3.063248-0.328205 3.610256-6.673504-0.328205-13.018803 0.65641-19.254701 2.953846-1.859829 0.65641-2.188034 0.218803-1.203419-1.531624 0.984615-1.750427 2.078632-2.953846 2.297436-5.032478 0.765812-6.345299 1.094017-11.596581 3.17265-18.051282 1.969231-6.017094 1.750427-11.596581 4.813675-17.613676 0.65641-1.203419 0.984615-2.625641 1.203419-4.376068 0.65641-5.360684 4.266667-8.861538 4.813675-14.222222 0.109402-0.875214 0.328205-1.641026 0.765812-2.297436 2.735043-4.48547 3.719658-8.97094 5.79829-13.347009 1.312821-2.844444 2.406838-5.688889 3.282052-8.752136 0.328205-1.422222 1.312821-1.859829 2.625641-1.312821 28.663248 11.158974 58.201709 30.632479 76.034188 56.123077 12.252991 17.394872 21.11453 36.540171 26.475213 57.217094 3.82906 14.659829 5.688889 28.225641 7.439317 42.119658 1.531624 11.596581 7.001709 49.558974 1.094017 62.468376z" fill="#FFCC93" p-id="7130"></path><path d="M355.555556 405.333333c-8.752137-4.376068-28.444444-6.017094-37.08718 0.109402-6.126496 4.376068-5.14188 14.550427-1.31282 19.692308 10.283761 13.675214 36.540171 23.302564 52.075213 13.45641 6.454701 1.094017 20.895726-11.158974 26.147009-15.863248 28.006838-24.94359 48.246154-41.900855 75.705983-58.092308 2.735043-1.531624 5.579487-2.188034 8.642735-1.750427 0.328205 0 0.65641 0.218803 0.875213 0.437607 2.297436 2.188034 4.266667 4.594872 5.907693 7.329914 3.500855 5.798291 6.673504 11.815385 9.517948 17.941881 0.984615 2.078632 0.984615 3.938462 3.391453 5.360684 0.984615 0.547009 1.531624 1.641026 1.422223 2.735042-0.218803 5.579487 2.188034 7.767521 3.391453 12.471795 0.109402 0.328205 0.328205 0.65641 0.547008 0.875214 1.203419 0.984615 1.969231 2.188034 2.406838 3.719658 0.109402 0.437607 0.65641 1.094017 1.422222 1.969231 0.437607 0.437607 0.875214 1.094017 1.094017 1.750427-7.767521 17.28547 8.97094 23.411966 22.646154 22.974359 17.613675-0.65641 37.74359-8.533333 46.495726-24.94359 1.312821-2.516239 1.859829-4.923077 1.641026-7.220513-1.094017-9.408547-11.815385-13.128205-20.239316-14.331623 0.218803-0.547009 0.328205-1.750427 0.328205-3.610257 0.109402-4.704274 2.735043-6.454701 4.704273-9.846154 4.48547-7.329915 10.393162-13.347009 17.723077-17.832478 6.345299-3.938462 10.393162-1.203419 16.957265 2.406837 16.300855 8.861538 27.459829 22.42735 39.056411 37.962393 2.844444 3.719658 4.704274 7.111111 7.548718 10.83077 2.078632 2.844444 3.610256 6.564103 5.032478 8.861538 4.594872 7.986325 8.752137 16.082051 12.471795 24.396581 0.547009 1.203419 1.641026 3.063248 3.17265 5.360684 1.641026 2.406838 7.220513 11.487179 8.533333 13.018804 7.876923 9.408547 1.422222 51.418803 3.938462 62.687179 1.422222 0.218803 3.17265-0.109402 5.251282-0.984615 3.391453-1.312821 4.376068-2.406838 5.79829-6.017094 3.391453-8.423932 7.548718-15.863248 12.471795-22.427351 5.579487-7.548718 18.160684-12.252991 27.569231-12.690598 26.803419-1.312821 41.682051 18.707692 42.994872 43.213675 2.297436 42.88547-20.129915 75.158974-53.059829 99.664957-3.610256 2.735043-6.892308 2.735043-10.064958 7.439317-2.844444-1.094017-5.360684-1.094017-7.767521-0.218804-3.719658 1.531624-6.673504 1.969231-10.283761 3.610257-4.376068 1.969231-8.97094 2.297436-13.784615 0.765812-2.516239-0.765812-3.82906-2.844444-6.017094-4.485471-0.437607-0.328205-0.984615-0.218803-1.312821 0.218804l-0.109401 0.109402c-17.28547 34.023932-41.244444 62.468376-71.986325 85.442735-21.223932 15.863248-47.699145 31.507692-72.861539 40.478632-19.911111 7.111111-40.150427 12.8-60.82735 17.066667-0.875214 0.218803-2.297436 1.641026 0.109402 1.094017 27.350427-5.470085 54.37265-12.471795 81.066666-21.11453 0.109402 3.17265 0.109402 6.345299 0 9.517949-0.875214 17.723077 0.109402 35.774359 1.531624 55.904273 1.422222 20.45812 11.815385 34.133333 28.444445 45.073504 12.8 8.423932 26.584615 14.878632 41.353846 19.254701 0.437607 0.109402 0.65641 0.328205 0.875214 0.547009l0.218803 0.437607c0.109402 0.218803 0.437607 0.437607 0.65641 0.328205 0.765812-0.328205 1.531624-0.437607 2.297436-0.328205-36.977778 27.569231-80.738462 45.511111-127.452991 37.415384-16.300855-2.844444-35.993162-7.65812-47.917949-19.801709-15.753846-15.753846-23.521368-35.008547-23.521368-57.654701 0-4.157265 2.078632-6.235897 0.765812-11.049573 9.517949-3.719658 16.191453-9.846154 20.020513-18.379487 4.157265-9.299145 6.017094-24.505983 6.017094-35.88376 0-0.765812-0.65641-1.422222-1.422222-1.422223h-0.109402c-10.830769 1.094017-20.129915-0.65641-30.523077-4.704273-36.868376-13.894017-72.423932-33.148718-98.680342-63.015385-23.193162-26.25641-38.290598-55.576068-44.088888-90.475213-2.953846-17.94188-4.266667-36.321368-3.719659-55.138462 0.218803-6.892308 0.328205-16.410256 0.328206-28.553846 0.437607-11.377778 0-22.646154-1.312821-33.91453-1.422222-12.362393-2.188034-19.692308-2.406838-21.77094-1.094017-11.268376-2.516239-22.536752-4.266666-33.805128 2.078632-9.080342 5.14188-17.832479 9.299145-26.147009 2.625641-2.078632 2.735043-4.813675 4.594872-7.001709 2.297436-2.844444 3.719658-4.923077 4.376068-6.126496 3.500855-7.001709 9.080342-12.471795 12.909402-17.504274 3.82906-5.14188 9.517949-11.158974 16.957265-18.051282 8.642735-7.986325 17.066667-15.863248 26.037607-20.676923 7.001709-3.82906 13.128205-3.82906 19.254701 1.531624 1.203419 0.984615 1.750427 2.297436 1.859829 3.82906 0.437607 8.533333 0.437607 17.176068-0.109402 26.037607-0.109402 2.516239-0.984615 5.14188-2.406838 7.986325-0.218803 0.328205-0.218803 0.765812-0.218803 1.203418 0.218803 3.610256-0.109402 6.345299-0.984615 8.31453zM500.622222 507.623932c-2.516239 6.782906-4.047863 13.675214-4.376068 20.786324-2.406838 12.252991 0.218803 23.302564 7.767521 33.039317 0.437607 0.547009 1.094017 0.765812 1.203419 1.641025 0.109402 0.437607 0.218803 0.765812 0.437607 0.875214 4.594872 3.938462 9.736752 6.673504 15.644444 8.095726 3.82906 0.984615 10.283761 3.610256 15.753846 3.719659 2.625641 0 4.813675 0.218803 6.673505 0.328205 8.205128 0.875214 16.082051-0.109402 23.740171-3.17265 1.531624-0.547009 3.82906-1.312821 6.782906-2.188034 4.266667-1.203419 6.673504-2.625641 9.846153-5.579487 0.875214-0.875214 2.078632-1.312821 3.391453-1.422222 0.547009-0.109402 0.984615-0.328205 1.422223-0.765812 2.844444-0.765812 5.251282-2.188034 7.329914-4.376069 3.938462-2.516239 7.111111-5.14188 9.627351-7.986325 9.189744-10.830769 14.988034-21.661538 18.270085-35.555555 0.109402-0.65641 0.109402-1.203419 0-1.859829-6.673504-24.834188-26.912821-38.728205-51.2-42.994872-16.62906-2.844444-35.774359 1.203419-49.887179 10.830769-3.500855 2.406838-7.329915 6.673504-11.815385 9.299146-4.48547 2.625641-7.439316 7.111111-10.283761 11.268376-0.65641 0.984615-1.203419 1.969231-1.641025 3.063247-1.312821 3.063248-0.875214 3.938462 1.31282 2.953847z m-194.188034 53.497436c12.581197 12.362393 26.912821 16.847863 42.88547 13.565811 21.661538-4.48547 33.695726-21.005128 31.070086-43.54188 0.328205-1.641026 0.328205-3.391453-0.109402-5.251282l-2.735043-10.940171c-0.65641-1.531624-0.984615-3.17265-1.203419-4.923077-1.750427-14.988034-18.926496-28.663248-31.507692-34.242735-10.830769-4.704274-25.6-4.48547-36.102564 0.65641-12.581197 6.126496-27.897436 19.911111-28.335043 35.336753-0.437607 19.801709 10.721368 38.4 26.037607 49.340171z m410.584615 33.805128c17.176068 3.063248 30.08547-17.832479 33.148718-32.273505 1.859829-8.752137 1.094017-17.723077-2.188034-26.694017-3.391453-9.080342-14.003419-22.974359-25.162393-16.082051-12.581197 7.876923-0.875214 33.148718 3.610256 42.338462 0.765812 1.641026 0.765812 3.17265-0.109401 4.704273-4.157265 7.439316-7.986325 15.425641-11.596581 23.849573-0.984615 2.297436-0.218803 3.719658 2.297435 4.157265z m-309.606837 2.406837c4.813675 3.282051 9.955556 5.032479 15.535043 5.251282 3.500855 0.218803 4.594872-1.422222 3.391453-4.704273-3.391453-8.642735-8.31453-16.957265-18.707693-16.847863-0.437607 0-0.765812 0.328205-0.875213 0.765812l-0.984616 11.815384c-0.109402 1.641026 0.547009 2.953846 1.641026 3.719658z m-19.692308 93.866667c7.986325 10.611966 22.099145 18.160684 34.680342 21.552137 10.502564 2.844444 21.223932 6.564103 31.835897 2.516239 1.750427-0.65641 47.261538-23.958974 55.357265-44.635897 2.406838-6.564103 3.938462-13.45641 4.48547-20.567522 0.547009-7.111111-2.625641-18.051282-10.830769-19.692307-6.564103-1.312821-12.690598-2.953846-18.707692-3.500855-26.694017-2.625641-53.388034-2.516239-80.082051 0.218803-2.953846 0.328205-6.017094 1.859829-8.533334 2.188034-15.644444 2.188034-28.553846 10.174359-22.755555 28.444445 1.859829 5.688889 3.282051 14.003419 6.235897 20.129914 2.406838 4.594872 5.14188 9.080342 8.31453 13.347009z" fill="#FFDEB7" p-id="7131"></path><path d="M355.555556 405.333333c8.97094 3.610256 19.582906 11.596581 21.005128 21.552137 0.765812 5.470085-3.282051 8.97094-7.329915 11.705983-15.535043 9.846154-41.791453 0.109402-52.075213-13.45641-3.938462-5.14188-4.923077-15.316239 1.31282-19.692308 8.642735-6.017094 28.335043-4.376068 37.08718-0.109402z" fill="#291F1C" p-id="7132"></path><path d="M596.239316 558.823932c-2.844444 0.65641-5.360684 2.078632-7.439316 4.047863-0.984615 0.109402-1.094017-0.328205-0.328205-1.422222 6.454701-8.423932 10.721368-17.94188 12.690598-28.444445 5.14188-17.613675-6.017094-25.818803-19.145299-33.367521-4.704274-3.82906-10.283761-6.017094-16.62906-6.564103-0.65641 3.610256 0.437607 6.454701 3.063248 8.423932 2.516239 1.750427 3.82906 2.735043 3.938462 2.953846 6.017094 6.782906 5.688889 24.068376 4.157265 32.601709-1.969231 11.268376-10.611966 25.490598-22.974359 27.131624-6.892308 0.875214-13.784615 1.203419-19.582906-3.172649-17.94188-13.237607-18.598291-38.947009-9.299146-57.326496 1.641026-2.844444 3.610256-5.470085 5.907693-7.767521 0.875214-0.875214 0.65641-1.312821-0.547009-1.312821-3.391453 0-5.688889 0.109402-8.861538 1.859829-6.892308 3.719658-13.784615 7.548718-20.567522 11.268376-2.188034 0.984615-2.625641 0.109402-1.422222-2.735042 0.437607-1.094017 0.984615-2.078632 1.641026-3.063248 2.844444-4.157265 5.798291-8.642735 10.28376-11.268376 4.48547-2.625641 8.205128-6.892308 11.815385-9.299146 14.112821-9.62735 33.25812-13.675214 49.887179-10.830769 24.287179 4.266667 44.526496 18.160684 51.2 42.994872 0.109402 0.65641 0.218803 1.203419 0 1.859829-3.17265 13.894017-9.080342 24.724786-18.270085 35.555556-2.406838 2.735043-5.579487 5.360684-9.517949 7.876923z m-71.220513-16.62906c0 1.094017 0.328205 2.188034 1.203419 3.500854 6.017094 9.080342 12.14359 16.410256 23.521368 15.863248 3.063248-0.109402 4.48547-1.859829 6.673504-2.735042 5.907692-2.188034 10.064957-6.235897 12.8-12.034188 0.765812-1.750427 0.875214-2.953846 3.17265-3.391453 0.328205 0 0.65641-0.328205 0.765812-0.656411 2.297436-6.892308 3.610256-17.94188 1.859829-24.943589-0.109402-0.65641-0.547009-2.406838-1.203419-5.251282-0.65641-3.063248-2.953846-6.017094-5.032479-9.080342-2.406838-3.500855-28.991453-7.65812-32.492308-8.752137-3.063248 0.328205-7.001709 2.078632-8.314529 6.782906-0.984615 3.500855-4.157265 8.31453-5.032479 13.237607-0.328205 1.641026-0.65641 3.063248-1.094017 4.376068-1.422222 4.594872-1.531624 9.189744-0.218804 13.784615 0.547009 2.078632 0.984615 5.907692 2.953847 8.31453 0.328205 0.218803 0.437607 0.547009 0.437606 0.984616z" fill="#502524" p-id="7133"></path><path d="M377.654701 515.063248c-0.875214-0.984615-1.422222-2.078632-1.531624-3.17265-0.109402-0.984615-0.65641-1.859829-1.422222-2.516239-2.516239-2.188034-5.14188-3.82906-7.65812-5.032479l-13.45641-6.345299c-0.547009-0.218803-0.65641-0.109402-0.328205 0.437607 3.610256 5.360684 6.454701 10.940171 8.533333 16.738462 4.594872 17.28547-0.109402 38.618803-17.723077 46.823931-9.517949 4.376068-19.035897-0.984615-24.834188-8.533333-10.721368-13.784615-10.611966-31.835897-2.844444-47.042735 2.188034-4.376068 5.470085-7.65812 9.62735-10.174359 2.188034-1.203419-0.875214-0.765812-1.203419-0.65641-11.158974 2.953846-23.630769 10.830769-27.897436 21.989743-2.735043 7.111111-1.750427 16.191453 0.218804 23.630769 1.859829 7.001709 5.798291 13.347009 9.299145 20.129915-15.316239-10.940171-26.475214-29.538462-26.037607-49.230769 0.437607-15.425641 15.753846-29.210256 28.335043-35.336752 10.611966-5.251282 25.271795-5.470085 36.102564-0.656411 12.581197 5.470085 29.866667 19.254701 31.507692 34.242735 0.328205 1.422222 0.65641 3.063248 1.312821 4.704274z m-37.962393-17.832479c-5.14188-0.218803-6.782906-0.109402-12.581197 1.750428-11.705983 5.688889-15.316239 20.786325-13.565812 32.492307 0.218803 1.641026 0.547009 4.704274 1.312821 6.454701 1.203419 2.735043 2.844444 6.892308 3.938461 7.876923 3.610256 3.282051 5.251282 7.767521 9.736752 10.393163 0.328205 0.109402 0.65641 0.218803 0.984616 0.218803 1.312821-0.109402 2.406838 0.328205 3.172649 1.312821 0.218803 0.328205 0.547009 0.437607 0.875214 0.547008 5.907692 0.547009 10.940171-1.094017 14.988034-5.032479 0.875214-0.875214 2.297436-1.969231 4.047863-3.391453 2.188034-1.750427 3.500855-3.82906 4.047864-6.4547 0.765812-3.82906 2.188034-7.767521 2.735042-10.283761 1.641026-8.095726 1.859829-17.066667-2.406837-24.28718-1.641026-2.735043-3.719658-5.688889-6.345299-8.861538-2.078632-2.516239-4.594872-3.500855-7.439317-3.063248-0.437607 0-3.17265 0.547009-3.500854 0.328205z" fill="#4E2223" p-id="7134"></path><path d="M524.690598 541.210256c-1.969231-2.406838-2.297436-6.235897-2.953846-8.31453-1.312821-4.594872-1.312821-9.189744 0.218804-13.784615 0.437607-1.203419 0.765812-2.625641 1.094017-4.376068 0.984615-4.923077 4.047863-9.736752 5.032478-13.237607 1.312821-4.704274 4.266667-6.235897 8.31453-6.782906 4.594872-2.297436 24.724786-0.65641 32.492308 8.752137 2.078632 3.063248 4.266667 6.017094 5.032479 9.080342 0.65641 2.844444 0.984615 4.594872 1.203418 5.251282 1.859829 7.001709 0.437607 17.94188-1.859829 24.943589-0.109402 0.328205-0.437607 0.547009-0.765812 0.656411-2.297436 0.328205-2.406838 1.531624-3.172649 3.391453-2.625641 5.798291-6.892308 9.846154-12.8 12.034188-2.188034 0.875214-3.719658 2.625641-6.673505 2.735042-11.377778 0.547009-17.504274-6.782906-23.521367-15.863248-0.875214-1.312821-1.203419-2.406838-1.203419-3.500854-0.109402-0.437607-0.218803-0.765812-0.437607-0.984616z m22.208547-23.302564c-0.109402-3.063248-2.625641-5.579487-5.79829-5.470085l-2.188034 0.109402c-3.063248 0.109402-5.579487 2.625641-5.470086 5.79829l0.109402 3.063248c0.109402 3.063248 2.625641 5.579487 5.79829 5.470085l2.188035-0.109401c3.063248-0.109402 5.579487-2.625641 5.470085-5.798291l-0.109402-3.063248z m9.736752 29.538462c-2.406838-0.109402-4.594872-0.65641-7.001709-0.437607-4.48547 0.328205-8.861538-0.328205-13.018803-2.078632-1.641026-0.65641-4.594872-1.969231-4.157265 1.422222 0.328205 3.719658 9.62735 8.31453 13.347008 8.095726 1.094017-0.109402 4.704274 1.422222 5.032479 1.422222 5.798291 0.109402 6.017094-3.938462 7.876923-8.095726 0.109402-0.328205 0.109402-0.547009-0.218804-0.765812h-0.109401c-0.328205-0.109402-0.65641-0.109402-0.984616 0.109402-0.109402 0.218803-0.547009 0.328205-0.765812 0.328205z" fill="#6B3438" p-id="7135"></path><path d="M582.017094 499.637607c1.531624 0.875214 6.345299 3.938462 6.673504 4.047863 8.642735 5.360684 10.611966 8.752137 12.690599 14.112821 1.203419 2.516239 2.188034 9.517949-0.109402 15.206837-4.704274-6.345299-15.535043-20.786325-19.473504-24.724786-5.251282-5.14188-10.721368-10.283761-16.410257-15.316239 6.345299 0.65641 11.924786 2.953846 16.62906 6.673504z" fill="#CBD4E6" p-id="7136"></path><path d="M565.388034 493.073504c5.688889 5.032479 11.158974 10.174359 16.410257 15.31624 3.938462 3.938462 11.487179 9.955556 16.191453 16.300854 2.844444 2.078632 3.938462 4.923077 3.282051 8.533334-1.969231 10.502564-6.235897 20.020513-12.690598 28.444444-0.109402 0.65641 1.531624 1.969231-1.094018 2.406838-1.312821 0.109402-2.406838 0.547009-3.391453 1.422222-3.17265 2.953846-5.579487 4.376068-9.846153 5.579487-3.063248 0.875214-5.251282 1.531624-6.782906 2.188034-7.65812 2.953846-15.535043 4.047863-23.740171 3.17265-1.859829-0.218803-4.047863-0.328205-6.673505-0.328205-5.470085-0.109402-11.924786-2.735043-15.753846-3.719658-5.907692-1.422222-11.158974-4.157265-15.644444-8.095727-0.218803-0.218803-0.328205-0.547009-0.437607-0.875214-0.109402-0.875214-0.875214-1.094017-1.203419-1.641025-7.548718-9.736752-10.174359-20.676923-7.767521-33.039316 1.750427-2.516239 3.610256-4.923077 5.579487-7.220513 4.047863-4.704274 8.861538-12.034188 14.550427-15.206838 2.625641-1.422222 4.48547-2.625641 5.579488-3.500855 0.328205-0.218803 0.65641-0.328205 0.875213-0.218803 0.65641 0.218803 1.203419 0.65641 1.750428 1.203419-9.299145 18.379487-8.642735 44.088889 9.299145 57.326496 5.798291 4.376068 12.690598 4.047863 19.582906 3.172649 12.362393-1.641026 20.895726-15.863248 22.974359-27.131624 1.531624-8.533333 1.859829-25.818803-4.157265-32.601709-0.109402-0.109402-1.422222-1.094017-3.938462-2.953846-2.625641-2.078632-3.610256-4.923077-2.953846-8.533334z" fill="#FFFFFF" p-id="7137"></path><path d="M524.581197 503.576068c-0.547009-0.547009-1.094017-0.875214-1.750428-1.203418-0.328205-0.109402-0.65641 0-0.875213 0.218803-1.094017 0.875214-3.063248 2.078632-5.579488 3.500855-5.688889 3.17265-10.502564 10.502564-14.550427 15.206837-1.969231 2.297436-3.82906 4.704274-5.579487 7.220513 0.437607-7.111111 1.859829-14.003419 4.376068-20.786325 6.782906-3.82906 13.565812-7.548718 20.567522-11.268376 3.17265-1.750427 5.470085-1.750427 8.861538-1.859829 1.203419 0 1.422222 0.437607 0.547009 1.312821-2.406838 2.188034-4.376068 4.704274-6.017094 7.658119z" fill="#DEE3EF" p-id="7138"></path><path d="M361.791453 515.063248c0.875214-1.312821 1.750427-1.422222 2.297436-0.328205 0.218803 0.328205 0.437607 0.547009 0.765812 0.765812 6.673504 3.063248 11.049573 11.377778 15.644444 15.753846 2.625641 22.646154-9.408547 39.165812-31.070085 43.54188-15.97265 3.282051-30.304274-1.203419-42.88547-13.565812-3.500855-6.673504-7.548718-13.018803-9.299146-20.129914-1.969231-7.548718-3.063248-16.519658-0.218803-23.63077 4.266667-11.158974 16.738462-19.035897 27.897436-21.989743 0.328205-0.109402 3.282051-0.547009 1.203419 0.65641-4.157265 2.406838-7.439316 5.798291-9.627351 10.174359-7.767521 15.206838-7.876923 33.25812 2.844445 47.042735 5.798291 7.548718 15.316239 12.909402 24.834188 8.533333 17.504274-8.205128 22.208547-29.647863 17.613675-46.823931z" fill="#FFFFFF" p-id="7139"></path><path d="M339.911111 497.011966c0.437607 0 0.875214 0 1.312821-0.109402 0.65641-0.109402 1.312821-0.109402 2.078632 0 2.844444-0.437607 5.251282 0.65641 7.439316 3.063248 2.625641 3.063248 4.704274 6.017094 6.345299 8.861538 4.266667 7.329915 3.938462 16.300855 2.406838 24.28718-0.547009 2.625641-1.969231 6.454701-2.735043 10.283761-0.547009 2.625641-1.859829 4.813675-4.047863 6.4547-1.859829 1.422222-3.17265 2.516239-4.047863 3.391453-4.047863 3.938462-8.97094 5.579487-14.988034 5.032479-2.844444-0.547009-4.813675-1.859829-5.032479-1.969231-4.48547-2.625641-6.126496-7.001709-9.736752-10.393162-1.094017-0.984615-2.735043-5.251282-3.938462-7.876923-0.875214-1.859829-1.094017-4.813675-1.31282-6.454701-1.750427-11.705983 1.859829-26.803419 13.565812-32.492308 3.610256-1.969231 10.064957-2.297436 12.690598-2.078632z m-3.172649 24.505983c0-3.719658-3.063248-6.782906-6.782906-6.782906-3.719658 0-6.782906 3.063248-6.782906 6.782906 0 3.719658 3.063248 6.782906 6.782906 6.782906 3.719658 0 6.782906-3.063248 6.782906-6.782906zM323.82906 548.102564l6.454701 6.235898c0.218803 0.218803 0.65641 0.437607 0.984615 0.437606l9.080342 0.218804c0.328205 0 0.65641 0.109402 1.094017 0.218803 2.297436 0.984615 6.673504-3.719658 8.095727-5.360684 0.328205-0.328205 0.437607-0.65641 0.547008-1.094017 0.65641-3.391453-0.109402-4.923077-2.516239-4.813675-0.109402 0-0.437607 0.109402-0.984616 0.328205l-3.719658 1.859829c-1.094017 0.437607-2.188034 0.218803-2.953846 0-4.266667 0.109402-6.892308 0-7.986325-0.547008-2.625641-1.422222-5.470085-2.188034-8.533333-2.078633-0.765812 0-1.422222 0.65641-1.422222 1.422223 0 0.218803 0 0.328205 0.109401 0.547008 0.328205 1.094017 0.875214 1.969231 1.750428 2.625641z" fill="#6B3438" p-id="7140"></path><path d="M367.042735 504.34188c-2.297436 1.203419-0.547009 2.297436 0.109402 3.500855 1.531624 2.516239 3.063248 4.923077 4.594872 7.329915 1.750427 2.625641 5.032479 5.907692 6.673504 10.064957 0.328205 0.765812 0.984615 1.094017 1.969231 0.765812 0.437607 1.859829 0.437607 3.610256 0.109401 5.251282-4.594872-4.376068-8.861538-12.690598-15.644444-15.753846-0.328205-0.109402-0.547009-0.437607-0.765812-0.765812-0.65641-1.203419-1.422222-1.094017-2.297436 0.328205-2.078632-5.798291-4.813675-11.377778-8.533333-16.738462-0.328205-0.547009-0.218803-0.65641 0.328205-0.437607l13.45641 6.454701z" fill="#DEE3EF" p-id="7141"></path><path d="M367.042735 504.34188c2.516239 1.203419 5.14188 2.844444 7.65812 5.032479 0.765812 0.65641 1.312821 1.531624 1.422222 2.516239 0.109402 1.094017 0.65641 2.078632 1.531624 3.17265l2.735043 10.940171c-0.984615 0.328205-1.641026 0-1.969231-0.765812-1.641026-4.157265-4.923077-7.439316-6.673504-10.064957-1.641026-2.406838-3.17265-4.813675-4.594872-7.329915-0.65641-1.312821-2.406838-2.297436-0.109402-3.500855z" fill="#DEE3EF" p-id="7142"></path><path d="M538.912821 512.547009l2.188034-0.109402c3.063248-0.109402 5.688889 2.406838 5.79829 5.470085l0.109402 3.063248c0.109402 3.063248-2.406838 5.688889-5.470085 5.798291l-2.188035 0.109401c-3.063248 0.109402-5.688889-2.406838-5.79829-5.470085l-0.109402-3.063248c-0.109402-3.17265 2.406838-5.688889 5.470086-5.79829z" fill="#FFFFFF" p-id="7143"></path><path d="M329.955556 521.517949m-6.782906 0a6.782906 6.782906 0 1 0 13.565812 0 6.782906 6.782906 0 1 0-13.565812 0Z" fill="#FFFFFF" p-id="7144"></path><path d="M717.018803 594.926496c-2.516239-0.437607-3.282051-1.859829-2.297435-4.157265 3.610256-8.423932 7.439316-16.300855 11.596581-23.849573 0.875214-1.531624 0.875214-3.17265 0.109401-4.704273-4.594872-9.299145-16.300855-34.461538-3.610256-42.338462 11.158974-6.892308 21.77094 7.001709 25.162393 16.082051 3.282051 9.080342 4.047863 17.94188 2.188034 26.694017-3.063248 14.331624-15.97265 35.22735-33.148718 32.273505z" fill="#FBCBA7" p-id="7145"></path><path d="M339.692308 546.242735l-13.128205 0.328205c-1.312821 0-2.188034 0.437607-2.735043 1.641026-0.765812-0.65641-1.422222-1.531624-1.859829-2.625641-0.328205-0.765812 0.109402-1.531624 0.765812-1.859829 0.109402-0.109402 0.328205-0.109402 0.547008-0.109402 3.063248 0 5.907692 0.65641 8.533334 2.078632 0.984615 0.547009 3.610256 0.65641 7.876923 0.547009z" fill="#D38461" p-id="7146"></path><path d="M323.82906 548.102564c0.547009-1.094017 1.531624-1.641026 2.735043-1.641026-0.109402 1.641026 0.547009 2.625641 2.078632 2.953847 0.328205 0.109402 0.65641 0.218803 0.875214 0.547008 2.516239 2.953846 8.752137 2.078632 12.143589 1.422222 3.063248-0.547009 3.610256-0.437607 3.063248-3.829059 0-0.328205-0.328205-0.547009-0.65641-0.547009h-0.109402c-0.65641 0.218803-0.984615 0-1.203418-0.875214l3.719658-1.859829c0.547009-0.218803 0.875214-0.328205 0.984615-0.328205 2.406838-0.109402 3.282051 1.531624 2.516239 4.813675-0.109402 0.437607-0.328205 0.765812-0.547008 1.094017-1.203419 2.078632-4.813675 5.907692-9.408547 5.798291 0 0-9.299145-0.437607-9.846154-0.984615l-6.345299-6.564103z" fill="#D38461" p-id="7147"></path><path d="M557.620513 547.117949c0.328205-0.218803 0.65641-0.218803 0.984615-0.109402 0.218803 0.109402 0.328205 0.328205 0.218804 0.65641v0.109402c-1.859829 4.047863-2.188034 8.205128-7.876923 8.095726-0.328205 0-4.047863-1.531624-5.032479-1.422222-3.719658 0.328205-13.018803-4.376068-13.347009-8.095726-0.328205-3.391453 2.516239-2.078632 4.157265-1.422222 4.157265 1.750427 8.533333 2.406838 13.018804 2.078632 2.406838-0.218803 4.594872 0.328205 7.001709 0.437607 0.109402 0 0.547009-0.109402 0.875214-0.328205zM342.646154 546.242735c0.218803 0.875214 0.65641 1.203419 1.203419 0.875214 0.328205-0.109402 0.65641 0 0.765812 0.328205v0.109402c0.547009 3.391453 0 3.282051-3.063248 3.829059-3.391453 0.65641-9.62735 1.531624-12.14359-1.422222-0.218803-0.218803-0.547009-0.437607-0.875214-0.547008-1.531624-0.328205-2.188034-1.312821-2.078632-2.953847l13.128205-0.328205c1.422222 0.109402 1.859829 0.328205 3.063248 0.109402z" fill="#EFBA90" p-id="7148"></path><path d="M596.239316 558.823932c-2.078632 2.078632-4.48547 3.500855-7.329914 4.376068v-0.328205c2.078632-2.078632 4.48547-3.391453 7.329914-4.047863z" fill="#D38461" p-id="7149"></path><path d="M407.411966 597.333333c-1.094017-0.765812-1.750427-2.188034-1.641026-3.610256l0.984616-11.815385c0-0.437607 0.437607-0.765812 0.875213-0.765812 10.393162-0.109402 15.316239 8.205128 18.707693 16.847864 1.312821 3.282051 0.218803 4.813675-3.391453 4.704273-5.579487-0.328205-10.721368-2.078632-15.535043-5.360684z m5.470085-3.282051c-0.437607 0.984615-0.875214 1.094017-1.31282 0.109402-1.641026-3.282051-2.953846-5.032479-3.82906-5.360684-0.547009-0.218803-0.65641 0.109402-0.437607 0.875214 1.094017 3.610256-0.765812 8.533333 5.688889 8.095726 0.65641 0 1.312821 0.109402 1.750427 0.547009 2.078632 1.641026 4.376068 2.516239 7.220513 2.516239 2.516239 0.109402 3.17265-0.984615 1.859829-3.17265-1.859829-3.063248-7.548718-12.471795-11.049572-13.675213-11.158974-3.719658 1.422222 6.782906 0.109401 10.064957z" fill="#F37B4B" p-id="7150"></path><path d="M412.882051 594.051282c1.312821-3.282051-11.158974-13.784615-0.218803-10.174359 3.610256 1.203419 9.299145 10.611966 11.049573 13.675214 1.312821 2.188034 0.65641 3.282051-1.85983 3.172649-2.735043-0.109402-5.14188-0.984615-7.220512-2.516239-0.547009-0.437607-1.094017-0.547009-1.750428-0.547009-6.454701 0.547009-4.594872-4.48547-5.688889-8.095726-0.218803-0.765812-0.109402-0.984615 0.437607-0.875214 0.875214 0.328205 2.188034 2.078632 3.82906 5.360684 0.547009 0.984615 0.984615 0.984615 1.422222 0z" fill="#FFD3AA" p-id="7151"></path><path d="M509.593162 670.632479c-14.441026-3.500855-30.413675-5.470085-47.917948-5.798291-16.519658-0.328205-31.835897 2.953846-45.729915 9.736752-8.095726 3.938462-17.504274 9.517949-28.225641 16.62906-3.17265-4.376068-5.907692-8.752137-8.205128-13.347009-3.063248-6.126496-4.376068-14.441026-6.235898-20.129914-5.907692-18.270085 7.001709-26.25641 22.755556-28.444445 2.516239-0.328205 5.470085-1.859829 8.533333-2.188034 26.694017-2.735043 53.388034-2.844444 80.082052-0.218803 6.017094 0.547009 12.14359 2.188034 18.707692 3.500855 8.205128 1.641026 11.377778 12.581197 10.830769 19.692307-0.65641 7.111111-2.078632 14.003419-4.594872 20.567522z" fill="#EE6A70" p-id="7152"></path><path d="M710.673504 636.280342c-14.988034 33.148718-36.758974 59.733333-65.31282 79.863248-11.815385 8.423932-26.365812 16.847863-43.651282 25.381196-0.328205 0.218803-0.65641 0.437607-0.765812 0.765812-0.437607 0.875214-0.547009 1.750427-0.547009 2.735043 0.328205-2.625641-0.765812-3.610256-3.063248-2.953846-0.328205 0.109402-0.65641 0.109402-1.094017 0.109402-1.750427-0.328205-3.500855-0.218803-5.14188 0.547008-14.659829 6.126496-29.42906 11.705983-44.307692 16.738462-26.694017 8.533333-53.716239 15.644444-81.066667 21.11453-2.406838 0.547009-0.984615-0.875214-0.109402-1.094018 20.676923-4.266667 41.025641-9.955556 60.827351-17.066666 25.162393-8.97094 51.637607-24.505983 72.861538-40.478633 30.74188-22.974359 54.700855-51.418803 71.986325-85.442735 0.218803-0.437607 0.765812-0.65641 1.31282-0.437607 0 0 0.109402 0 0.109402 0.109402 2.188034 1.641026 3.500855 3.719658 6.017094 4.48547 4.813675 1.531624 9.408547 1.203419 13.784616-0.765812 3.610256-1.641026 6.564103-2.188034 10.28376-3.610256 2.516239-1.094017 5.14188-1.094017 7.876923 0z" fill="#FBC791" p-id="7153"></path><path d="M509.593162 670.632479c-8.095726 20.676923-26.694017 38.509402-49.558974 42.994871-2.078632 0.437607-3.938462 0.984615-5.798291 1.641026-10.721368 4.047863-21.333333 0.328205-31.835897-2.516239-12.581197-3.391453-26.694017-10.940171-34.680342-21.552137 10.721368-7.111111 20.020513-12.581197 28.225641-16.62906 13.894017-6.782906 29.210256-10.064957 45.729915-9.736752 17.504274 0.328205 33.476923 2.297436 47.917948 5.798291z" fill="#FC8486" p-id="7154"></path><path d="M600.396581 745.025641l-1.422222 29.100855c-1.641026 16.410256-0.65641 32.164103 2.735043 46.933333 1.203419 5.032479 8.205128 9.517949 12.581196 11.924786 14.878632 7.986325 29.976068 15.316239 45.40171 22.099146l-21.11453 21.77094c-5.14188 4.923077-10.611966 9.408547-16.300855 13.45641-0.765812 0-1.531624 0.109402-2.297436 0.328205-0.218803 0.109402-0.547009 0-0.65641-0.328205l-0.218803-0.437607c-0.109402-0.218803-0.437607-0.437607-0.875214-0.547008-14.769231-4.376068-28.553846-10.721368-41.353846-19.254701-16.738462-10.940171-27.022222-24.615385-28.444445-45.073504-1.422222-20.129915-2.406838-38.181197-1.531624-55.904274 0.109402-3.17265 0.109402-6.345299 0-9.517949 14.878632-5.032479 29.647863-10.721368 44.307693-16.738461 1.641026-0.65641 3.391453-0.875214 5.14188-0.547009 0.328205 0.109402 0.65641 0 1.094017-0.109401 2.188034-0.765812 3.282051 0.218803 2.953846 2.844444z" fill="#FFD3AA" p-id="7155"></path><path d="M640.328205 878.167521l-0.437607-0.437606c0.218803 0.218803 0.328205 0.437607 0.547009 0.547008-0.109402 0-0.109402-0.109402-0.109402-0.109402zM638.577778 876.745299l0.984615 0.65641c-0.218803-0.218803-0.547009-0.437607-0.984615-0.65641zM640.984615 883.090598c0-0.109402 0-0.109402 0 0 0-0.109402 0 0 0 0z" fill="#1D97EA" p-id="7156"></path><path d="M617.025641 972.8s-0.109402 0 0 0c-1.641026 0.328205-3.282051 0.65641-4.813675 0.984615 1.531624-0.328205 3.17265-0.65641 4.813675-0.984615zM611.22735 973.128205c1.422222-6.017094 9.62735-20.348718 10.064958-21.11453 5.251282-10.721368 8.095726-20.129915 12.034188-29.647863 0.109402-0.328205 3.391453-11.268376 4.48547-14.878633 1.531624-7.111111 2.625641-14.441026 3.063248-21.77094 0-0.328205 0-1.094017 0.109401-2.516239v-0.109402c0-2.735043-0.109402-3.17265-0.328205-4.157265 0-0.218803-0.109402-0.328205-0.218803-0.547008s-0.328205-0.437607-0.547009-0.547009c-0.109402-0.109402-0.218803-0.218803-0.218803-0.328205-0.328205-0.218803-0.65641-0.547009-0.984616-0.65641-5.14188 4.923077-10.611966 9.408547-16.300854 13.45641-36.977778 27.569231-80.738462 45.511111-127.452992 37.415385-16.300855-2.844444-35.993162-7.65812-47.917948-19.80171-15.863248-15.97265-23.630769-35.22735-23.63077-57.873504 0-4.157265 2.078632-6.235897 0.765812-11.049573-6.345299 4.594872-15.644444 8.97094-23.302564 9.299146-9.299145 0.437607-21.11453 0.875214-35.555555 1.203419-47.261538 0.984615-89.709402 11.049573-128 40.041025-1.969231 1.531624-3.82906 3.82906-4.704274 4.813675 77.784615 56.34188 173.511111 89.6 276.895727 89.6 35.008547 0.109402 69.032479-3.719658 101.743589-10.830769z" fill="#F5F5F5" p-id="7157"></path><path d="M611.008547 974.112821c0.328205-0.109402 0.765812-0.218803 1.094017-0.218804-0.328205 0-0.65641 0.109402-1.094017 0.218804zM767.781197 896.547009c-2.625641-1.203419-6.673504-2.844444-11.815385-4.813676-40.041026-15.425641-72.095726-27.678632-96.164103-36.649572l-21.11453 21.77094 0.984616 0.65641c0.109402 0.109402 0.218803 0.218803 0.218803 0.328205l0.437607 0.437607s0.109402 0.109402 0.109402 0.218803 0.109402 0.109402 0.109402 0.109402c0.328205 0.437607 0.437607 2.625641 0.437606 4.48547v0.218804c0 1.312821-0.109402 2.406838-0.109401 2.516239-0.547009 7.329915-1.531624 14.550427-3.063248 21.77094-0.875214 3.82906-2.625641 6.673504-2.406838 11.815385 0 0.875214-0.437607 1.641026-1.422222 2.297436-0.328205 0.218803-0.547009 0.437607-0.65641 0.765812-3.938462 9.62735-6.782906 18.926496-12.034188 29.647863-0.437607 0.765812-0.765812 2.406838-1.203419 4.704273-0.437607 2.625641-2.078632 5.798291-4.813675 9.408547-1.859829 2.516239-2.188034 4.704274 0.109401 6.017094 58.85812-13.45641 113.449573-37.852991 161.586325-71.001709-1.969231-2.188034-7.329915-3.938462-9.189743-4.704273z" fill="#EEEEEE" p-id="7158"></path><path d="M615.384615 972.14359c-2.297436-1.312821-1.969231-3.500855-0.109401-6.017094 2.735043-3.719658 4.266667-6.892308 4.813675-9.408547 0.437607-2.406838 0.875214-3.938462 1.203419-4.704274-0.328205 0.765812-8.642735 15.206838-10.064958 21.11453 1.422222-0.328205 2.844444-0.65641 4.157265-0.984615zM640.984615 882.981197c0-1.859829 0-4.047863-0.437606-4.485471 0-0.109402-0.109402-0.109402-0.109402-0.109401 0.109402 0.218803 0.218803 0.328205 0.218803 0.547008 0.109402 0.875214 0.328205 1.312821 0.328205 4.047864zM639.671795 877.401709c0.109402 0.109402 0.218803 0.218803 0.218803 0.328206-0.109402-0.109402-0.218803-0.218803-0.218803-0.328206zM640.984615 883.090598c0 1.422222-0.109402 2.188034-0.109401 2.51624 0-0.109402 0-1.203419 0.109401-2.51624zM633.982906 921.490598c0.984615-0.547009 1.422222-1.312821 1.422222-2.297436-0.218803-5.14188 1.531624-7.986325 2.406838-11.815384-1.094017 3.610256-4.376068 14.550427-4.48547 14.878632 0.109402-0.218803 0.328205-0.547009 0.65641-0.765812z" fill="#EEEEEE" p-id="7159"></path></svg>